<?xml version="1.0" encoding="utf-8"?>
<svg version="1.1" id="Layer_1" xmlns="http://www.w3.org/2000/svg" xmlns:xlink="http://www.w3.org/1999/xlink" x="0px"
	y="0px" width="605px" height="650px" viewBox="0 0 605 650" enable-background="new 0 0 605 650" xml:space="preserve">
	<g>
		<path id="Seoul" class="land Seoul" d="M166.088,139.007l0.569,0.33l0,0l3.757,3.816l-0.104,1.774l0.543,0.526l0.311,3.092l0.569,0.524l0.545-0.098l2.382-1.25l2.541,5.687l0.518,0.132l1.785-0.723l1.193,0.492l2.359-0.099l4.118-2.301l3.03-0.295v1.709l0.674,1.216l3.6-2.072
		l2.953-0.261l1.66-1.577l-0.443-0.561l0.416-0.59l0.623,0.164l0.621-0.462l1.269-1.709v-0.593l-1.165-0.493l0.389-2.498
		l0.984-0.987l1.736-0.625l0.438-0.526l-0.648-2.403l-0.774-1.151l-1.142,0.824l-2.432,0.593l-1.168,0.756l-1.164,0.164
		l-0.365-0.591l-0.024-1.186l1.425-4.148l-1.09-1.712l-0.076-1.846l-0.882-1.151l-0.104-4.517l-0.907-1.087l-1.164-0.198
		l-2.592,0.329l-2.305-0.525l-0.906,0.987l-1.242,0.528l-0.546,0.527l0.026,1.186l-1.088,1.055l-0.078,2.998l-1.089,0.791
		l-5.077,0.396l-0.828,1.054l-0.156,3.094l-0.619,0.364l-3.577,1.611l-2.382-1.151l-1.373-1.712l-1.245-0.329l-1.01,2.469
		l-1.14,0.988L166.088,139.007z" />
		<path id="Busan" class="land Busan" d="M391.965,393.331l0.041,0.762h3.92l1.324,1.338l0,0l0.99,1.67l-0.164,1.506l-0.889,0.32l-0.596,0.768
		l-0.363,1.021l0.258,1.664l-0.723,2.332l-0.855-0.064l-0.104,0.926l-0.881,0.129l0.568,0.543l1.014-0.352l0.309,1.627l-1.4,3.035
		l-0.621-0.033l-0.336-0.479l-0.596,1.406l0.777,1.373l-0.078,0.479h-0.439l-0.025,1.244l-0.494,0.256l-0.311-0.449l-0.52,0.736
		l-0.982,0.127l-0.568,2.203l-0.752,0.158l-0.363,0.543l-1.631-0.607l-0.598,0.098l-0.674,0.828l-1.631-1.084l0.102,0.799
		l-1.604,0.223l-0.234,0.541l0.285,0.863l-0.646,0.67l1.008,0.156l0.518,1.502l-0.129,2.613l-1.164-0.637h-0.701l-0.285,0.508
		l-0.908-0.189l-0.1-1.021l-0.209,0.639l-1.916-0.256l0.207-1.977l-0.699-0.447l-0.57,0.797l-1.193,0.512l-0.307,0.572l0.23,0.383
		l-1.607,1.723l-0.207,1.785l-0.803,0.098l0.672,1.434l-0.697,1.146l-0.906-2.039l-0.184-1.531l-1.061,0.191l0.906,3.855
		l-0.338,0.541l-0.596-0.127l-0.154-1.467l-0.957-0.35l-0.287,0.67l0.623,0.158l-0.131,0.828l-1.141-0.127l0.676,0.924h-0.441
		l-0.723,0.828l0.1-1.752l-0.723-0.383l-0.805-3.314l0.547-3.027l-0.57-0.064l-0.338,1.723l-1.139,0.766l-0.131-1.18l0.465-1.594
		l-0.412-0.098l-0.676,2.01l-1.244,0.734l-0.025,0.857h-1.629l0.49-3.793l0.52-0.732l-1.039-0.383l-0.959,4.908l-1.477-0.51h-2.902
		l-1.475-1.625l-0.232,0.701l-1.529,0.16l-1.139,1.307l-0.516-0.063l-0.234-0.828l0.752-1.055l0.852,0.16l0.207-0.637l-1.242,0.191
		l0.311-2.32l0,0l0.199-0.465l2.4-1l4.234-1.145l0.426-4.998l2.26-0.287l3.813-2.428l4.098-0.143l1.412-1.572l0.848-2l0.781-0.197
		l0.967-1.162l3.898-2.477l1.813,0.316l1.016-1.34l0.846-2.713l1.695-2.57l4.801-0.572l0.566-1.857l2.91-2.705l0,0L391.965,393.331z
		 M377.654,424.147l1.84,1.594l-0.287,1.627l1.916,1.625l-0.492,1.084h-0.881l-0.467-1.182l-0.619,0.256l-0.496-0.479l-0.074-0.795
		l-1.297-0.414l-1.787-1.881l0.023-0.479l0.803-0.512L377.654,424.147z" />
		<path id="Daegu" class="land Daegu" d="M328.686,362.028l-0.771,1l-0.793,3.582l-1.064,0.594l-2.389-0.891l0,0l-1.502,0.375l0,0l-3.443,2.49
		l-2.381,0.061l0,0l-0.725-3.422l-4.002-4.98l0.309-2.803l1.846,0.623l1.539,1.244h2.156l0.615-2.49l-3.078-3.426l1.23-3.113
		l1.232-2.803l5.232-0.934l-0.309-1.869l-2.768-2.178l-4.619-0.313l0.307-3.113l1.23-2.803l2.158-3.113l2.152-0.623l1.848-1.246
		l0.615,5.605h2.465l0.924-3.113l2.461-4.983l5.848-1.244l2.773-3.114l3.387-0.936l3.076,0.313l3.697,3.114v4.358l0.615,3.113
		l1.844,4.049l-0.922,2.18l-3.385,1.246l-1.541,3.424v3.113l-2.463,0.313v1.869l1.232,1.557v4.049l-3.387,1.244l-1.539,1.867
		l-2.771-0.311l-0.617-2.801h-3.076l-2.156,1.244l-1.539,2.49L328.686,362.028z" />
		<path id="Incheon" class="land Incheon" d="M146.867,135.803l2.419-1.981l1.67-0.729l0.607-1.572l1.478-1.267l2.047,0.192l7.355,6.02l0,0l3.773,1.289
		l-0.13,1.251l0.57,0.33l0,0l-3.498,4.536l0,0l0.129,4.016l3.264,2.892l0,0l0.027,1.183l-0.702,0.79l-0.024,0.657l0,0l0.258,1.148
		l-0.931,0.821l0,0l-0.545,0.426l-0.287,1.074l0,0l-0.546-0.164l-0.129-0.197l-1.295-0.229l0.468-1.808l-0.675-0.525l-0.259,0.064
		l0.596,0.493l-0.13,0.756l-0.596,0.36l-0.286-2.2l-0.311-0.132l0.052,2.267l0.415,0.23l-0.026,0.493l-1.943,2.266l-3.523-0.493
		l-3.627,4.628l-3.161,0.033h-0.128L148,162.819l-0.336,1.083l-0.985-0.032l0.828-0.264l0.519-1.837h2.149l-0.438,0.82h2.797
		l3.548-4.497l-1.319-0.427l-2.667-2.727l-0.934-4.271l-0.491,2.3l-1.45-0.099l0.361-0.821l-0.491-0.723l0.674-0.1l-0.468-0.394
		l0.105-0.56l-0.805,1.282l-0.958-0.098l-0.233-0.395l0.363-1.38l-0.208-0.888l0.596-0.033l-0.336-0.822l0.777-1.512l2.954-1.184
		l1.217,0.394l-0.751-0.538l-0.156-1.139l-1.036,0.987l-1.347,0.131l0.053-1.316l-0.726-0.394l-0.285-0.691l0.958,0.1l-0.156-1.25
		h-0.57l-0.051-0.824h-0.518l-0.078-0.428l0.675-0.295l0.051-1.415l-2.591,1.019l-0.156,0.625l-0.388-0.395l-0.596,0.229
		l-2.281,2.012l2.177-2.077l3.86-1.613l-0.829-1.054l-0.726-0.132L146.867,135.803z M121.215,137.416l1.737,0.89l0.076,0.362
		l0.855-0.263l0.519,1.546l0.882,0.46l2.926-0.427l-0.259,1.446l-2.021-0.427l-1.84,0.625l-0.051-0.559h-0.338l-1.01,0.954
		l0.363-2.105l-1.917-1.909L121.215,137.416z M140.593,140.575l0.75,0.724l-0.026,0.461l3.524,0.986l0.545,0.921l0.829,0.394
		l0.414,1.843l-2.227,1.413l-1.374-0.065l-0.595-0.591l-0.985,1.249l-2.099,0.954l-1.709,2.234l-3.965,2.924l-1.528-0.196
		l-1.294,0.755l-0.053-0.525l0.57-0.328l-0.182-1.117l-0.932-0.656l-1.217,0.82l0.881-0.92l-0.466-0.723l-0.726,0.229v0.789
		l-0.621-0.525l-0.231,0.756l-0.519-0.723l-1.089-0.1l0.854-0.624l-0.465-0.165l0.13-0.953l-0.546,0.065l-0.645-0.724l-0.183-0.689
		l0.414-0.69l1.631-0.032l3.887-2.794l5.492-0.263l1.321-0.954l0.674-2.697L140.593,140.575z M130.878,155.205l0.103,0.82
		l0.778,0.264l0.777,1.281l1.089,0.524l-0.077,0.591l-0.621-0.065l0.57,0.427l-0.701,0.493v0.688l-1.553,0.428l-0.934-0.92
		l0.362-1.247l-0.259-0.689l-1.166-0.296l0.805-1.446l0.076-0.984L130.878,155.205z" />
		<path id="Gwangju" class="land Gwangju" d="M183.959,410.749l-1.914-2.334l-1.805-0.869l-2.406-0.086l-2.404,0.955l-1.976,1.043l-1.977,2.086l-1.461,0.086
		l-2.063-0.697l-1.459-1.389l-0.602-2.172l-2.149-0.086l-2.062,5.301l-2.319-0.086l-1.718,2.084l-1.117,4.781l0.429,4.084
		l7.132,1.041l1.805,2.26l1.891,3.824h3.694l3.351-1.998h3.779l1.461-1.043l3.094,0.607l3.35-2.346l1.375-1.826l0.774-1.65
		l0.087-2.607l0.858-1.826v-1.389l-2.063-0.955l-2.577-0.264L183.959,410.749z" />
		<path id="Daejeon" class="land Daejeon" d="M224.799,272.089l0.303,0.17l0,0l0.48-0.088l0.967-2.272l0,0l0.604-0.646l0,0l1.365,0.18l-0.32,1.303l0,0
		l-0.068,0.638l0,0l0.006,0.258l2.822-2.65l0,0l2.463,2.491l0,0l0.236,2.618l0.646,0.742l1.748,0.411l-0.313,1.624l0.76,0.209
		l1.232,2.181l-1.232,0.31l-1.539,1.559l0,0l-0.924,5.604l0,0l-1.23,6.229l1.152,3.737l0,0l-3.307,2.179l-2.154,2.803l-3.695-2.18
		l-2.154-3.737v-1.869l-0.617-1.556h-1.539l0.307,3.114l-0.615,4.98l-0.924,2.18h-1.23l-0.922-3.112l-2.465-0.936l-1.539-2.179
		l-0.309-3.425l-2.154-1.868l-0.307-4.048l2.154-2.491l-0.311-8.719l0,0l2.488-0.579l0,0l0.9-0.043l3.385-1.558l0.924-2.804
		l0.324-3.278l-0.305-0.034l0,0l-0.225-0.318l3.902-0.416L224.799,272.089z" />
		<path id="Ulsan" class="land Ulsan" d="M391.172,357.606l1.777,1.469l1.988,0.309l0.957,0.586l0.234,0.824l0,0l-0.42,2.836l0,0l0.283,0.771
		l0.721,0.334l0,0l1.949,0.648l0,0l1.406-0.24l2.789-1.84l1.1-0.305l0,0l1.467-0.012l0,0l4.824,1.729l0,0l1.738,0.424l0,0
		l2.855,0.408l0.688,1.451l-0.027,1.377l-0.727,0.191l-0.387,0.58l0.518,3.143l-0.596,1.057l-0.051,1.346l-0.105,0.354l-1.01,0.16
		l0.025,0.48l0.725-0.385l-0.182,1.57l-1.189,0.514l0.025,0.289l0.828-0.162l0.131,0.611l-1.244,0.605l0.18,0.449l0.934-0.383
		l0.361,0.639l-0.463-0.063l-0.547,1.25l-0.982-0.416l0.076,0.352l-0.982,0.127l0.051,0.514l-0.52,0.479l-0.412-0.189l-0.234-1.477
		l0.387-0.99l-0.621-0.836l-0.518-0.061l0.182-1.379l-0.805-1.57l-1.914-2.119l-1.477-0.479v0.674l1.371,0.48l0.908,1.188
		l-0.078,1.121l0.959,0.256l-0.078,0.832l0.416,0.609l-0.313,0.447l-0.52-0.223l-1.008,0.352l-0.492-0.445l0.518,0.701l0.957-0.256
		l0.883,1.57l-0.623,0.449l-0.131,1.154l-0.648,0.223l-1.164,1.41l-0.672-0.031l-0.494-1.121l-1.035-0.545l0.672,0.799l0.078,2.209
		l0.285,0.258l0.854-0.32l-0.492,0.992l1.348-0.734l-0.412,0.734l0.412,0.865l-0.309,0.385l-1.012,0.064l-0.23,0.766l0.385,1.152
		h0.699l0.027,0.578l-0.49,0.16l-0.285,1.406l-0.807,0.354l-0.207,0.992l0.107,0.734l0.955,0.287l0.699,1.473l-1.475,0.863
		l-0.545-0.545l-0.621,0.064l-0.492,1.121l-0.596-0.031l-0.104,0.67l-0.492,0.223l-0.311,1.09l-1.064,0.063l-0.26,1.182
		l-1.137-0.127l-0.285-0.799l-0.537,0.256l0.166-1.508l-0.99-1.67l0,0l-1.324-1.338h-3.92l-0.041-0.76l0,0l-1.523-1.881l0,0
		l-3.049-0.209l0,0l-2.199-1.883l-3.385-3.973l0,0l-3.215-3.348l-2.369-0.207l0,0h-2.707l-2.201-1.047l-0.338-4.816l2.199-1.885l0,0
		l1.184-1.047v-1.465l-1.449-2.422l0,0l3.869-3.082l0,0l1.639-0.174l0,0l0.664,0.131l0.648-0.863l-1.336-2.475l-0.221-1.061
		l0.586-0.492l4.1-2.574l3.072-1.018l1.605,0.299l2.555-0.656L391.172,357.606z" />
		<path id="Gyeonggi-do" class="land Gyeonggi-do" d="M113.133,114.412l-1.709-1.485l-0.078-0.595l0.828-0.495l0.675-1.156l-0.156-1.188l0.364-1.089l1.554-1.486
		l0.829,0.296l1.788-0.296l3.004,1.75h1.529l0.829-0.661l1.062,1.188l-1.683,2.773l-1.942,1.188l-2.591-0.33l-0.777,0.528
		l-1.425,0.065l-1.035,1.419L113.133,114.412z M123.597,172.563l-0.36,0.525l-0.338-0.263l-0.207,0.426l-1.373-0.885l-0.44,0.196
		l-1.501-0.492l-0.079-0.59l-0.803,0.165l0.207,0.753l-0.466,0.328l1.241,1.213l0.104-0.426l0.492,0.492l0.881-0.131l0.208,0.786
		l0.182-0.427l0.414,0.033l0.414,0.558l2.046-0.524l0.727-1.212l-0.83-0.525L123.597,172.563L123.597,172.563z M115.93,128.788
		l-0.05-0.988l0.493-0.89l-0.261-0.495l-1.502,0.066l-0.673-0.396l-0.908,0.232l-0.078,0.593l1.374,1.481l1.84,1.021l0.545,0.758
		l0.336-0.56l-0.467-0.495L115.93,128.788z M104.61,174.465l-0.233-0.557l-0.907,0.624l-0.079-1.346l-0.389-0.033l-0.286-1.475
		l-0.596-0.425l-0.492,0.262l0.181,0.459l-1.166,2.491l0.079,2.163l-0.596,0.884l1.243-0.196l-0.208-0.458l0.389-0.329l0.39,1.278
		l1.139-0.359l0.129,0.721l-0.646,0.328l0.361,0.393l1.737-0.327l0.597,0.229l0.128-0.524l0.882,0.099l0.052-0.558l1.528-1.31
		l-0.285-0.295L104.61,174.465z M110.672,122.362l-0.362-0.132l-1.242,1.517l-1.037-0.363l-1.321,0.396l0.102,0.494l1.166,0.726
		l1.14-0.495l0.931,0.693l-0.076,0.791l0.466-0.198l1.372,0.527l-0.285-0.759l0.569-0.691l-1.062-1.055L110.672,122.362z
		 M192.648,52.635l-5.499,4.256l-0.989,1.827l-3.844,3.977h-2.771l-4.617-1.869l-2.463,1.557l-2.771,1.869l-2.77,2.802l-3.386,4.982
		l1.847,0.934l1.848,3.737l6.225,0.289l3.319,1.89l0.616,3.114l-1.233,0.934l-0.309,1.869l-2.153-0.623h-2.77l-0.309,3.736
		l-1.541,0.935l0.309,2.491l1.847,0.935l-0.308,6.54l-2.157,1.245l-1.538-2.49l-1.539-1.245l1.23-4.36l-1.932-2.464l-2.371,0.072
		l-0.315,2.703l-1.846,1.869l-3.429-3.336l-0.731,0.107l-0.271,0.837l1.155,4.054l-0.48,1.865l3.448,0.83l1.231,0.935l3.387,4.982
		l-6.465,1.868h-2.798l-0.947,4.536L151.595,111l-1.104,0.526l-1.929,1.933l-3.516-0.528l-1.993-1.604l-0.597,1.171l-1.063,0.099
		l-0.674,0.693l1.088,1.749l-0.854,4.223l1.061,1.781l0.078,1.484l-0.57,1.614l1.141,0.527l-0.052,1.253l-0.701,0.461l1.659,3.031
		l0.958,3.294l2.335,3.095l0,0l2.419-1.981l1.67-0.729l0.607-1.572l1.478-1.267l2.048,0.192l7.355,6.02l0,0l3.772,1.29l0,0
		l1.138-0.988l1.01-2.469l1.245,0.329l1.373,1.711l2.383,1.152l3.576-1.612l0.621-0.363l0.155-3.095l0.827-1.054l5.078-0.396
		l1.089-0.791l0.077-2.998l1.09-1.056l-0.029-1.186l0.547-0.527l1.242-0.527l0.906-0.988l2.305,0.526l2.592-0.33l1.164,0.198
		l0.906,1.087l0.104,4.517l0.882,1.151l0.076,1.846l1.091,1.712l-1.426,4.147l0.024,1.186l0.365,0.592l1.165-0.164l1.167-0.757
		l2.432-0.593l1.141-0.823l0.775,1.151l0.648,2.403l-0.438,0.526l-1.736,0.625l-0.984,0.987l-0.391,2.498l1.166,0.493v0.593
		l-1.269,1.709l-0.621,0.461l-0.622-0.164l-0.418,0.592l0.445,0.559l-1.66,1.577l-2.953,0.262l-3.6,2.071l-0.674-1.216v-1.708
		l-3.03,0.295l-4.12,2.301l-2.357,0.099l-1.193-0.491l-1.786,0.722l-0.518-0.131l-2.54-5.687l-2.383,1.25l-0.545,0.099l-0.569-0.526
		l-0.311-3.091l-0.543-0.526l0.104-1.774l-3.756-3.816l0,0l-3.498,4.536l0,0l0.129,4.015l3.264,2.894l0,0l0.027,1.182l-0.702,0.79
		l-0.024,0.657l0,0l0.258,1.148l-0.931,0.821l0,0l-0.545,0.426l-0.287,1.074l0,0h0.801l0.413,0.591l-3.91-0.755l-0.881,1.051
		l0.804,0.623l-0.389,1.511l-1.942,1.643l-0.752-0.066l-0.464,0.689l-1.479,0.36l-0.259,0.951l0.519,0.131l0.027,0.428l-7.384,2.559
		l-2.9,2.231l-0.908-0.264l0.467,0.983l-1.27,1.378l-0.57-0.033l-0.026-0.657l-2.254-0.688l2.099,2.197l0.311,1.475l0.44,0.361
		l-0.337,2.064l-0.466,0.426l-1.087-0.031l-0.234,0.721l0.103,0.655l1.089,0.064l0.233,0.753h-1.192l0.284,0.854l-0.597,0.163
		l-0.465,0.917l0.388,0.263l0.543-0.885l0.7-0.065l1.011,1.572l0.699-0.752l-0.206-0.624l0.621-1.343l0.699-0.655l0.856,0.688
		l0.569-0.064l0.492,0.852l0.364-0.49l0.698,0.557l-0.206-1.245l0.984-2.063l0.259,1.638l1.969,1.245l-0.492,0.688l-0.026,1.017
		l0.569,0.622l0.363-0.853l-0.183-0.721l0.596-0.753l-0.336-1.639l-2.591-1.343l-0.234-1.44l-0.517-0.428l0.128-0.819l-0.93-0.458
		l-1.244,0.064l-0.958-1.344l-1.14-0.656l1.088-1.146l-0.078-0.656l3.161-2.23l6.398-2.23l0.985-0.066l3.472,2.789l4.792,1.805
		l3.057-0.395l1.14,2.099l1.036,0.428l0.544,0.754l1.244-0.426l-0.854,0.818l-0.131,0.95l-1.554-2l-0.466,0.361l-1.425-0.854
		l0.154-0.918l-0.881,0.328l-0.335,0.787l0.751,0.557l0.18,0.723l-1.087-0.558l-0.802,0.458l0.723,1.737l-0.907,0.853l0.648,0.196
		l-0.698,0.196l0.311,0.492l-1.814,2.652l-0.336-0.589l-0.959-0.295l0.57-0.688l-0.467-0.655l-0.13-2.36l-2.616,0.854l-0.337-1.082
		l-0.881,0.131l-2.643-0.884l-0.881,1.113l0.157,0.722l-1.686,0.359l0.389,1.737l0.518-0.197l0.39,0.787l-0.907,0.786l-0.026,0.951
		l0.958,1.539l-1.397,0.033l-1.141,1.474l1.166,2.587l-1.061,0.95l0.984-0.033l0.494-0.59l0.259,0.394l1.27-0.394l0.103,0.655
		l0.778-0.164l-1.323,1.833l-0.881,0.295l0.312,0.393l0.569-0.164l0.389,0.589l0.338,1.243l-0.518,0.523l0.829,0.786l0.389-1.604
		l0.88-0.261l0.468-0.916l0.544-0.033l0.078,0.327l1.347-1.014l2.045-3.405l2.514,0.229l0.363-0.591l0.441,0.033l0.57-1.572
		l-0.027,1.213l0.674,0.195l-0.208,0.722l0.492,0.262l-2.125,1.309l4.613,0.066l0.05,0.359l-2.097,0.229l0.932,0.556l-0.025,0.459
		l-0.804-0.359l-0.336,0.817l-1.009,0.491l-1.038-0.72l-1.994,1.93l-0.182,0.916l0.699,1.8l-0.467,4.35l-0.362,0.459l-0.232,0.031
		l-0.934,1.438l-0.025,0.817l0.363,0.784l3.445-0.032l0.802,0.359l0.285,2.09l-0.491-0.195l-0.829,0.622l0.052,0.815l0.543,0.523
		l1.787-0.197l1.527,0.491l1.477,2.581l0.285,1.012l-0.648-0.359l0.492,0.915l1.891,0.783l0.44,1.861l1.918-0.327l1.398,0.914
		l0.854,4.55l0,0l0.976-0.056l0.817-1.208l1.621-0.81l7.449,1.759l0.822-0.612l0.928,0.005l3.122-1.162l2.97-2.064l2.548-0.084
		l2.948,1.423l1.32,1.794l1.922,1.582l5.027,0.696l0,0l2.729-0.23l0,0l1.5-0.909l0,0l1.539-0.35l0,0l0.689-0.44l0,0l1.684-1.234
		l2.18,0.136l0.895-1.352l0.877-0.394l0.164-2.104l-0.299-1.083l0,0l1.967-1.591l0,0l3.053-1.411l-0.178-0.446l0.916-1.143
		l0.051-1.035l2.307-2.563l0.793,1.188l1.463-0.021l-0.27,2.064l1.576-3.218l4.246,0.78l4-3.736l2.463-0.312l0.619-7.784h1.539
		l1.537,1.868h1.848l2.627-6.632l2.611-0.582l0,0l0.609-7.42l-0.613-3.426l1.537-1.246l-0.309-7.473l3.389-8.095l0.309-4.048
		l-1.93-0.709l-0.773-2.376l2.734-3.132l0.361-0.892l2.035-0.701l0.785-2.179l-1.256-1.545l-0.377-1.35l-2.211,0.167l-0.842-0.786
		l-2.256-0.624l-3.539-0.12l-4.248-3.688l-2.654-0.323l-1.793-1.454l-2.266-1.021l-3.59,1.398l-1.266-0.91l-1.34-1.928l1.727-3.505
		l0.307-4.38l-1.535,0.553l-0.738-0.139l-0.648,0.636l-0.621-0.148l0.119-2.019l2.127-1.851l0.535-1.222l-1.303-3.498l0.006-0.914
		l0.809-1.042l-0.197-1.746l-0.639-1.196l0.58-1.521l2.23-0.75l1.775-2.062l2.582-0.568l0.684-0.5l0.988-3.959l-0.809-4.026
		l-1.424-1.586l-1.986-0.386l-2.162-1.031l-0.08-2.696l-0.871-0.602l-3.176,0.341l-3.051-1.524l-1.238-1.591l-0.299-1.426
		l-0.398-7.5l-1.404-1.968l-0.725-0.092l-1.205,1.135l-0.688-0.958l-1.379-0.589l-1.465,0.194l-2.34,0.811l-1.199,1.404
		l-0.514-0.286l-1.891-2.173l-1.34-0.213l-1.178-1.191l-0.307-1.967l0.535-1.122l0.248-2.224l1.078-0.918l-1.945-0.876l-0.561,0.04
		l-1.389,1.305l-1.662,2.392l-2.403,0.162l-1.623-0.829l-0.501-0.936l0.113-2.247l-0.98,0.31l-0.177-1.074l0.615-1.868l-1.54-1.245
		l-0.924-5.294h-4.617v-1.868l1.231-0.936l-4.674-4.408L192.648,52.635z M127.693,122.822l-1.063-0.791l0.026-0.495l-2.461-0.363
		l-2.073-1.648l-0.024-2.31l1.009-2.079l-0.907-0.561l-3.186,1.32l-0.079,3.398l-0.233,0.396l-1.011-0.231l-0.258,0.396l1.84,1.714
		l2.695,1.45l1.011,1.45l-0.262,2.078l1.244,0.625l-0.181,0.429h0.726l-0.207-0.758l3.006-1.978L127.693,122.822z M141.085,126.416
		l0.207-0.561l0.751-0.197l-0.026-0.461l-1.113-0.462l-0.336-0.891l0.776-3.166l-0.854-0.759l-0.286-0.956l0.13-1.221l0.958-1.419
		l0.13-1.088l-1.347-1.684l0.156-1.022l-0.492-1.254l-4.455-2.939l-2.125-2.773l-0.984-0.231l-0.57,0.792l-2.332,0.166l-0.828,2.014
		L125,110.186l0.596,3.435l-0.416,2.672l0.337,3.958l2.954,0.792l0.388,0.56l-0.233,0.792l1.347,1.318l0.44,1.912l-0.155,1.483
		l-0.7,0.89l-3.133,0.593l0.803,0.527l0.337,1.548l-0.701,0.461l0.13,0.33l0.413-0.066l1.243,1.186l1.244,0.197l0.336,0.627
		l5.285,0.361l0.027-1.021l0.881,0.428l0.57-0.922l2.175,0.988l0.933-0.066l0.802-1.647l1.348-0.395l0.051-0.56L141.085,126.416z
		 M138.053,170.204l-0.905,0.131l-0.595-0.754l-1.529,0.558l-0.389-0.131l-0.337,0.59l0.156,0.689l-1.527-0.131l-0.158,1.245
		l-0.544,0.264l0.441,0.294l0.362,1.672l-0.492,0.164l0.157,1.705l1.862-0.033l0.312,0.393l-0.259,0.524l0.623-0.065l0.44-0.721
		l0.882-0.393l-0.261-0.854l1.502-0.098v-0.492l-0.518,0.131l0.027-0.524l-0.648-0.427l0.726-0.295l0.518,0.263l-0.207-0.755
		l0.983,0.723l0.416-0.426l0.259-1.541l-0.467-0.887L138.053,170.204z" />
		<path id="Gangwon-do" class="land Gangwon-do" d="M312.424,12l1.398,2.805l2.125,2.737l0.568-0.167l0.777,1.735l-0.025,0.733l-0.52,0.534l0.676,0.8l-0.078,0.534
		l1.139,1.001l-0.57,1.301l0.363,0.801l0.775,0.199l-0.152,1.468l0.984,0.767l-0.184,0.833l0.676,0.367l2.178,2.898l-0.443,0.567
		l-0.152-0.301l-0.521,0.233l-0.049,1.699l3.729,5.794l1.709,1.797l-0.621,0.434l0.258,1.664l1.582,2.229l-0.027,1.464l2.279,1.995
		l-0.232,1.696l0.986,1.861l0.076,2.06l3.367,4.984l0.57,0.198l-0.725,0.398l-0.078,0.73l1.994,2.723l-0.906,0.996l0.494,1.857
		l-0.158,0.931l0.57,1.26l0.906,1.294l0.674,0.265l0.961,2.124l1.398,1.724l1.58,1.16l0.699,3.017l3.988,4.308l1.088,0.1
		l-0.49,1.887l3.701,6.158l1.662,1.189l-0.078,1.06l3.236,3.341l0.805,0.396l0.389,0.86l-0.469,1.62l1.84,2.644l2.488,2.379
		l0.232,1.454l9.377,10.004l3.654,5.015l3.703,3.429l-0.285,2.472l-0.545,0.164l-0.516,1.056l0.154,0.956l2.355,3.228l4.432,3.688
		l0.363,1.81l-0.932,1.943l1.242,2.235l-0.311,0.691l1.371,1.973l-0.387,0.264l1.736,1.382l3.365,3.911l1.09,5.027l4.77,3.745
		l0.072,2.231l0.908,1.149l0.701,3.479l1.813,1.607l1.01-0.098l0.467,2.524l0.623-0.262l1.01,0.327l-0.055,0.657l0.857,0.426
		l-0.26,1.802l2.096,1.937l0.053,1.048l0.623,0.426l-1.451,1.114l0.699,1.769l-0.83,2.392l0.545,2.587l1.191,1.212l0.932,2.455
		l0.57,0.262l-0.309,1.177l0.805,0.835l0,0l-4.223,0.714l0,0l-1.846,2.18l-2.461,0.935l-2.771,2.491l0,0l-1.539,2.18v1.245l0,0
		l1.539,2.803l-6.447,0.161l0,0l-2.623-2.267l-2.91-1.029l-2.58-0.396l-2.512,2.51l-0.996-0.192l-3.031-1.745l-3.301-0.673
		l-1.152-0.026l-2.15,0.741l-0.67-1.32l-1.699-0.683l0,0l-0.916,0.594l-1.953,3.703l0,0l-0.922,1.245h-4.004l-3.385-2.803
		l-2.771-1.556l-1.992,0.183l-0.639,2.312l0.104,2.396l-0.357,0.753l-0.742,0.363l-1.438-0.952l-1.586-0.418l-1.895,0.254
		l-3.041-2.091l-1.154-0.24l0,0l-1.715-1.348l0,0l-0.631-0.787l0,0l-2.107,0.26l0,0l-1.336-0.049l-3.906-1.274l0,0l-1.596-0.711
		l-1.943-2.196l-1.641-0.522l-0.34,0.433l0,0l-0.926,0.423l0,0l-3.252,0.577l-0.805-0.248l-0.311,0.594l-0.746,0.124l-0.807-1.396
		l0,0l-0.178-0.822l0,0l-1.137-0.535l0,0l-0.459-0.283l0,0l0.012-1.948l0,0l0.094-0.668l0,0l-0.951-0.808l-1.438,0.325l-2.387-0.187
		l0,0l-0.854,0.047l-1.176,1.252l0,0l-1.443,0.14l-0.498,0.519l0,0l-0.684,0.468l-2.285-1.764l0,0l-0.652-1.693l1.498-1.262l0,0
		l1.723-0.758l0,0l2.324-2.724l0.102-1.362l-0.57-0.522l-0.963-0.005l-1.348,0.831l0,0l-1.037,0.264l0,0l-1.691-0.229L302,181.434
		l-2.096-0.433l-1.953-1.506l-2.426,0.588l-1.1,0.932l-0.666,1.511l-0.668,0.096l-2.934-1.003l-1.566,1.771l-2.059,1.302l0,0
		l-2.105,0.367l0,0l-2.016,0.819l0,0l-0.889-0.328l0,0l-0.332-0.474l0.061-3.367l0,0l-1.754-3.299l0,0l-2.018-0.518l0,0
		l-2.188,0.075l-1.479,0.942l0,0l-2.346,1.682l-0.461,0.999l0.273,2.693l0.709,1.986l-0.418,1.798l-2.016,0.792l-0.434,0.943
		l-0.66,0.362l-2.297-1.151l-2.994,0.094l-1.43,1.872l-2.154,0.935l-4.004-3.114l-0.609-3.478l0,0l0.609-7.421l-0.613-3.425
		l1.537-1.246l-0.307-7.473l3.387-8.095l0.309-4.048l-1.928-0.709l-0.775-2.378l2.736-3.13l0.357-0.892l2.037-0.701l0.785-2.179
		l-1.256-1.545l-0.377-1.35l-2.211,0.167l-0.84-0.787l-2.258-0.623l-3.539-0.12l-4.248-3.687l-2.652-0.323l-1.793-1.454
		l-2.266-1.021l-3.59,1.398l-1.268-0.91l-1.338-1.928l1.725-3.505l0.307-4.379l-1.533,0.552l-0.74-0.139l-0.648,0.636l-0.619-0.148
		l0.117-2.019l2.129-1.851l0.533-1.222l-1.303-3.498l0.006-0.913l0.809-1.043l-0.197-1.746l-0.639-1.196l0.582-1.521l2.23-0.75
		l1.773-2.062l2.582-0.568l0.686-0.501l0.986-3.959l-0.807-4.025l-1.426-1.587l-1.984-0.386l-2.164-1.031l-0.08-2.696l-0.871-0.602
		l-3.176,0.342l-3.051-1.524l-1.238-1.592l-0.299-1.426l-0.398-7.5l-1.404-1.968l-0.727-0.092l-1.205,1.135l-0.688-0.958
		l-1.377-0.59L221.9,77.31l-2.34,0.811l-1.199,1.404l-0.514-0.286l-1.893-2.173l-1.34-0.214l-1.176-1.19l-0.309-1.966l0.537-1.122
		l0.248-2.224l1.078-0.918l-1.945-0.877l-0.561,0.04l-1.389,1.305l-1.662,2.391l-2.402,0.162l-1.624-0.829l-0.5-0.936l0.112-2.246
		l-0.979,0.309l-0.178-1.074l0.615-1.868l-1.54-1.245l-0.923-5.295H197.4v-1.866l1.231-0.936l-4.674-4.408l0,0l0.981-1.17
		l3.008-2.074l1.093-0.232l2.226,0.612l3.658-1.28l2.944-1.774l3.37,0.524l1.58,1.191l1.48-0.406l1.67,0.29l1.121-0.941l2.063,0.004
		l1.857-1.018l2.016-0.107l1.943,0.824l1.232,1.068l1.553-0.153l2.188,0.837l2.191,1.413l5.234-3.201l2.893-1.023l1.424,0.31
		l1.146,1.122l1.488,0.095l2.246-0.503l2.627,0.669l1.932-1.312l5.711,0.291l2.506-1.394l0.609,0.357l0.703,1.79l2.301,2.442
		l2.105-0.916l1.771-0.19l0.809-0.456l1.275-1.779l6.209,1.837l1.756-0.436l6.365,1.438l2.922-0.459l2.939-2.434l2.602,0.103
		l0.695-0.378l2.887-2.958l3.814-2.442l1.273-2.106l1.739-1.147l3.714-3.686l2.137-4.593l-0.225-1.444l1.027-3.139l-0.52-9.063
		l0.555-0.741L312.424,12z" />
		<path id="Chungcheongbuk-do" class="land Chungcheongbuk-do" d="M246.35,317.858l-0.922-2.795l-1.541-3.112l-2.156-1.868l-0.307-2.804l0,0l1.23-2.802l-0.307-3.113
		l-1.848-3.113l0,0l-2.76,0.265l-1.02-0.846l-2.889-1.073l-1.027-3.64l1.23-6.229l0,0l0.924-5.604l0,0l1.539-1.559l1.232-0.31
		l-1.232-2.181l-0.76-0.209l0.313-1.624l-1.748-0.411l-0.646-0.742l-0.236-2.618l0,0l-2.463-2.491l0,0l-2.822,2.65l-0.006-0.258l0,0
		l0.068-0.638l0,0l0.32-1.303l-1.365-0.18l0,0l-0.604,0.646l0,0l-0.967,2.272l-0.48,0.088l0,0l-0.303-0.17l0,0l-1.229-5.288
		l-3.902,0.416l-0.383-0.541l-0.697-0.145l-0.395,0.324l0,0l-0.572,0.781l0,0l1.842-6.085l-1.068-1.14l0.818-1.819l0.09-1.456
		l-3.295-0.195l-0.443-1.35l0,0v-2.803l-2.771-3.425l2.156-0.623l0.307-2.803l0,0l-1.539-2.18l4.926-7.784l3.695,0.312l1.539-1.868
		l-1.232-3.736l-3.078-2.18h-2.842l0,0l-1.064-0.479l0.158-1.989l0,0l-0.063-0.42l-0.52-0.066l0,0l-1.463-0.707l0,0l-0.227-2.654
		l-2.801-1.914l-0.896-2.415l2.729-0.23l0,0l1.498-0.909l0,0l1.541-0.35l0,0l0.689-0.44l0,0l1.684-1.235l2.18,0.137l0.893-1.352
		l0.877-0.394l0.166-2.104l-0.301-1.083l0,0l1.967-1.592l0,0l3.055-1.411l-0.18-0.445l0.918-1.143l0.049-1.035l2.307-2.563
		l0.793,1.188l1.465-0.021l-0.27,2.064l1.576-3.219l4.246,0.781l4-3.736l2.465-0.312l0.617-7.784h1.539l1.535,1.867h1.85
		l2.625-6.631l2.613-0.583l0.609,3.478l4.004,3.114l2.154-0.935l1.43-1.871l2.994-0.094l1.895,1.08l1.063-0.292l0.434-0.942
		l2.016-0.793l0.418-1.798l-0.711-1.986l-0.271-2.693l0.461-0.999l2.346-1.682l0,0l1.479-0.942l2.188-0.075l0,0l2.018,0.518l0,0
		l1.754,3.299l0,0l-0.061,3.367l0.332,0.474l0,0l0.889,0.328l0,0l2.016-0.819l0,0l2.105-0.367l0,0l2.059-1.302l1.566-1.771
		l2.934,1.004l0.668-0.096l0.664-1.512l1.102-0.932l2.426-0.588l1.953,1.506l2.096,0.433l1.453,1.731l1.691,0.229l0,0l1.037-0.264
		l0,0l1.348-0.831l0.963,0.005l0.57,0.522l-0.102,1.362l-2.324,2.724l0,0l-1.723,0.758l0,0l-1.498,1.262l0.652,1.693l0,0
		l2.285,1.764l0.684-0.468l0,0l0.498-0.519l1.443-0.14l0,0l1.176-1.252l0.854-0.047l0,0l2.387,0.187l1.436-0.325l0.953,0.808l0,0
		l-0.094,0.668l0,0l-0.012,1.948l0,0l0.459,0.283l0,0l1.137,0.535l0,0l0.178,0.822l0,0l0.805,1.396l0.748-0.123l0.309-0.595
		l0.807,0.248l3.252-0.577l0,0l0.926-0.423l0,0l0.34-0.433l1.641,0.522l1.943,2.196l1.596,0.711l0,0l3.906,1.274l1.336,0.049l0,0
		l2.107-0.26l0,0l0.631,0.787l0,0l1.715,1.348l-1.258,1.28l0,0l-0.916,0.874l-0.461-0.23l0,0l-0.916-0.326l0,0l-0.738,0.311l0,0
		l-1.428,2.137l-0.82,0.47l0,0l-0.609,0.28l0,0l-3.246,3.243l-2.764,0.807l0,0l-0.777,1.24l0,0l-0.457,0.997l-3.041,1.745
		l-0.09,0.88l-1.465,1.47l-1.559,3.308l0,0l-0.822,1.562l0,0l-0.053,1.331l1.295,0.608l0,0l0.527,0.813l0,0l0.26,2.094l-2.809,3.891
		l0,0l-1.41,0.297l0,0l-2.082,0.151l0,0l-0.447,0.33l0,0l-0.912,1.027l-2.408-0.051l0,0l-1.625,0.434l-0.539-0.254l0,0l-1.021-2.792
		l-1.439-2.121l-3.193-1.844l-1.166-1.968l0,0l-1.069,1.273l-0.271,1.017l0,0l-0.305,0.751l-1.115,0.343l-0.242,2.584l0,0
		l-0.199,0.644l0,0l-0.361,0.564l-5.135-1.294l-0.492-0.441l0,0l-0.414-0.629l0,0l-1.053-0.376l-0.602,0.625l0,0l-1.365,1.147l0,0
		l-1.135,1.938l0,0l-1.361,0.189l0,0l-1.615-1.744l-0.5,0.304l-2.672,6.328l0,0l-0.154,0.348l0,0l3.195,4.441l0.154,0.793
		l-1.176,0.105l-3.365-1.014l0,0l-1.164-0.663l-1.191,0.584l0,0l-2.162-1.015l0,0l-1.109-0.612l0,0l-1.152,2.334l-1.682,1.391
		l-1.584,1.042l-1.975,0.125l0,0l-0.637,0.253l0,0l-1.66,2.37l0.475,2.218l0,0l-0.439,0.698l0,0l-2.178,1.903l0,0l-0.572,0.729l0,0
		l-0.932,1.504l-0.803,0.045l0,0l-1.543,0.352l0,0l-0.807,1l-0.17,0.903l0.721,1.096l5.293,1.13l1.201,1.218l-0.141,0.928l0,0
		l0.383,1.556l0.57,0.409l0,0l1.619,0.68l0.359,0.681l-0.414,1.702l0,0l-0.125,0.559l0,0l-1.863,0.332l0,0l-0.426,1.333l0,0
		l0.291,3.591l-0.664,2.686l0.586,1.177v1.293l-1.266,2.012l1.299,3.247l0,0l0.488,0.307l0,0l-0.986,2.558l-2.625,2.303l0,0
		l-0.07,4.277l0.365,0.783l1.762,0.991l0,0l1.82-1.07l1.146-1.502l0.4,0.018l0.459,1.442l2.209,0.794l0.256,0.681l0,0l0.092,0.499
		l0,0l0.969,0.322l0,0l0.764,0.748l0,0l0.332,0.494l0.828-0.099l0,0l1.963-0.836l0,0l2.201-0.786l1.992,0.694l0,0l0.611,1.068l0,0
		l-0.35,1.063l0.5,2.1l0,0l0.563,1.304l0.682,0.565l0,0l-0.092,0.794l-1.137,0.552l-2.439-1.476l-2.377,1.425l-0.648,0.855
		l-0.518,0.88l0.082,1.187l1.078,1.767l-0.502,1.408l0.098,2.157l-1.734,1.46l0.184,0.918l-0.982,1.678l-0.223,2.034l-1.816,2.591
		l-0.742,0.332l-0.869-0.666l-1.225,0.238l-3.775,3.633l-1.973-2.217l-0.883-0.061l0,0l-1.354,0.449l0,0l-2.693,1.613l0,0
		l-0.875,0.334l0,0l-0.354,0.9l0,0l-2.568,0.006l-0.152-0.916l0,0l-1.682-1.041l0,0l-1.156-0.291l0,0l-2.234-0.557l0,0l-0.652-0.564
		l0,0l-1.039-2.267L246.35,317.858z" />
		<path id="Chungcheongnam-do" class="land Chungcheongnam-do" d="M126.164,281.617l-0.105,0.905l-1.295-0.614l-0.466,0.68l-0.232-1.394l1.061-0.744l0.026-1.328l0,0h0.649
		l0.206,1.685l0.932,0.713L126.164,281.617z M133.338,276.854l-0.723,0.778l1.139,0.583l1.555,0.161l-0.156,0.938l-1.398-0.129
		l-0.182-0.614l-1.633-0.454l-1.605,0.031l-0.39-0.583l-1.191,0.421l-0.648-0.26l-0.025-1.067l0.726-0.552l1.424,0.486l1.062,0.906
		l-0.518-1.425l0.933-0.454l0,0l1.011,0.098l0.155,1.037L133.338,276.854z M127.667,260.184l0.258,0.326l1.14-0.034l0.803,0.941
		l0.207,1.104l-0.518,0.355l-0.026,0.553l1.088-0.325l-0.155,1.818l0.854,1.427l-0.983,1.427l0.777,0.195l0.701,1.427l0.854,0.13
		l-0.208,0.974l0.468,1.167l-1.271,1.005l0.57,1.361l-0.828,0.13l0.206-0.455l-0.337-0.452l-0.491,0.291l-0.156-1.167h-1.192
		l0.362-0.745l-1.89-0.033l-0.052,0.584l-0.907,0.52l-0.492-0.615l-0.415,0.065l-0.128-1.007l-0.674,0.032l0.544-1.881l-1.97,0.194
		l-0.44-0.583l0.231-0.649l-0.361-0.973l0.75-1.719l-1.348,0.389l0.104-0.486l0.673-0.292l0.285-2.107l-0.051-0.65l-0.596-0.291
		l0.284-0.909l-0.518-0.194l0.312-5.194l-1.425-1.852l-0.206-1.526l0.881-0.846l0.051-0.813l2.747-2.112l0,0l0.416-0.163l0.907,0.78
		l-0.052,1.139l0.777,0.616l-0.182,0.747l0.414,0.1l-0.051,1.136l-1.347,0.455l-0.154,0.521l1.45,0.683l0.337,1.754l-0.235,1.494
		l1.011,1.362l-0.104,0.584L127.667,260.184z M134.349,198.49l-2.773,0.294l0.286-0.981l-0.597-1.079l0.261-0.72l0,0l2.331,0.393
		l0.518,0.817L134.349,198.49z M138.805,195.939l1.995,0.72l0,0l1.528,2.256l2.177,0.359l6.71,4.052l1.581,0.392l4.688-0.163
		l0.362,0.785l7.41,2.023l0.285,0.426l-0.362,0.946l1.553,2.678l-0.311,0.424l0.415,0.784l0.363,0.555l0.285-0.327l0.464,0.163
		l0.519,3.362l0.932,1.076l0.027,0.555l3.522,0.651l1.686-0.782l2.744-0.279l0.975-0.056l0.817-1.208l1.62-0.81l7.449,1.758
		l0.822-0.611l0.928,0.005l3.123-1.162l2.97-2.065l2.548-0.084l2.948,1.424l1.321,1.794l1.922,1.582l5.027,0.696l0.896,2.414
		l2.801,1.915l0.227,2.654l1.463,0.707l0.52,0.065l0.064,0.421l-0.16,1.989l1.064,0.479h2.842l3.08,2.18l1.232,3.736l-1.541,1.869
		l-3.695-0.313l-4.926,7.785l-2.41,0.202l-2.525-0.941l-2.658-1.614l-1.465-1.614l-2.527-0.808l-2.66,1.076l-0.396,1.75l1.063,2.019
		l0.533,2.017l0.266,3.095l-0.662,2.421l0.265,3.363l0.132,3.498v3.094l-1.063,2.421l0.133,2.019l1.861,2.557l2.66,1.479l1.33,3.9
		l0.267,2.825l-0.134,4.034l1.197,3.095l1.729,1.346l1.684,2.052l0.309,4.048l2.154,1.868l0.309,3.425l1.539,2.18l2.465,0.936
		l0.922,3.112h1.23l0.924-2.18l0.617-4.98l-0.309-3.114h1.539l0.617,1.557v1.869l2.154,3.736l3.693,2.18l2.156-2.803l3.307-2.179
		l2.762,0.976l1.021,0.847l2.758-0.266l1.848,3.112l0.309,3.114l-1.232,2.802l0.309,2.804l2.154,1.868l1.541,3.112l0.922,2.795
		l-0.307,0.329v2.48l-2.771,2.805l-1.539-1.246l-2.508-1.203l-1.865,0.998l-1.014,0.184l-0.156,2.201l-0.924,1.868l-3.078,0.623
		l-3.385-0.311l-0.617-2.803l-0.072-2.182l-0.598-0.162l-3.021,1.721h-1.232l-1.848-4.359l-0.344-2.768l-2.924-5.094l-1.117-1.624
		l-2.387,2.013l-4.311-0.312l0.617,2.49l-5.234,0.312l-1.705-1.726l-1.104-0.164l-1.874,1.148l-2.269,0.233l-1.455,0.718
		l-2.519-0.183l-0.499-0.806l-0.025-1.21l-2.402-0.192l-0.31-3.737l-2.163-2.006l-1.249,0.379l-3.716-2.265l-3.634-0.668
		l-2.644,2.006l-1.984,0.668l-0.002,8.425l-7.082,3.428l-4.309,1.557l-1.462-1.357l-1.29,0.558l-0.674-0.328l-0.311,1.033
		l-1.063,1.127l-4.222-1.063l-1.115,0.611l-0.725-0.742l0.414-1.063l-0.466-1.063l0.675-0.063l0.076-0.42l-2.227-2.58l-1.038,0.096
		l-0.284-2.807l-1.037,0.191l0.675-1.032l0.723,0.419l1.088-0.807l-0.078-0.517l-1.165,0.318l0.026-0.835l-1.037-0.483l-0.804,0.71
		l-1.322-2.939l-2.512-2.196l-1.374,1.391l-0.129-0.905l-0.775-0.936l-2.593-0.938l-1.166,0.323l-0.284,2.39l-1.063-0.968
		l0.026-2.746l0.803,0.452l1.529-0.227l0.75-0.971l-0.181-2.229l1.089-1.584l0.388-0.033l-0.881-4.494l0.647-0.776l0.311-1.746
		l0.699-0.13l0.053-0.483l-0.57-0.972l-0.725-0.29l0.492-0.324l-1.167-2.234l-0.906,0.131l-0.416-1.619l-1.218-1.585l0.441-0.52
		l0.828,0.421l0.622-0.81l2.203-0.777l0.286-0.68l0.905-0.553l2.565,0.229l-3.212-0.682l-4.665-3.271l-1.761-0.032l0.414-3.208
		l0.907-1.913l0.986-0.228l1.372-1.426h1.243l0.648-1.199l0.673,0.097l0.183-0.389l1.476,0.097l0.673-2.757l1.245,0.714l1.424-0.261
		l0.986-1.232l-2.203,0.779l-1.425-0.909l-0.492,0.487l-0.492-0.585l-0.104,0.746l-2.073,1.362l-0.311,1.168l-0.777,0.064
		l-0.311,1.396l-2.589,1.329l0.259-1.199l-1.218-1.298l0.103-1.783l-0.646-1.007l0.232-3.406l0.699-0.262l0.262-0.973l1.036-0.876
		l2.124,0.812l1.27,1.525l0.75-0.099l-1.631-1.559l-1.736-0.681l-0.724-0.748l-1.478,1.267l-0.231-1.006l-2.099-1.884l0.647-1.688
		l-0.725-3.021l-0.986-1.202l-3.418-1.396l-0.545-0.943l-3.575-0.584l-0.675-0.651l-2.305,1.399l-1.556,1.526l-0.57,1.56
		l-0.596-0.584l-1.555,1.852l-0.207-0.908l-0.803-0.813l0.648-1.04l-0.104-1.885l1.037-0.748l-0.13-3.153l-1.061-2.31l-0.546-0.422
		l-0.702,0.352l-0.906-0.227l-0.079-0.749l0.39-0.358l-0.518-0.326l-0.104-0.715l0.104-0.685l1.009-0.683l-0.206-1.434l0.286-0.78
		l0.465,0.13l0.336-0.423l-0.39-0.749l-0.854,0.065l-0.984,1.465l-2.074-0.098l-0.182,0.976l0.597,0.489l-0.103,0.358l-0.752,0.228
		l0.13,0.585l-2.28,0.23l0.13,0.651l-0.933,0.228l0.183,0.456l-0.44,0.976l-0.778,0.26l-0.312-0.749l-0.88,0.392l-1.893-0.292
		l-0.596-2.018l0.338-0.293l-0.544-0.554l0.259-0.422l1.167-0.293l-0.285-0.392l0.933-0.78l1.27,0.356l1.45,1.107l0.803,0.064
		l0.959-0.716l0.569-1.205l-0.881-0.65l-1.037,0.65l0.052-0.65l1.193-1.691l-1.219,0.585l-1.89-1.074l1.009-1.335l-0.855,0.195
		l-0.311-0.423l-1.476-0.065l-0.855,0.553l-1.529-0.846l0.13,0.912l0.854,0.75l0.155,2.018l-2.642,2.67h-0.414l0.128-0.782
		l0.518-0.292l-0.335-1.172l1.113-1.627l-0.389-0.619l0.311-0.423l-0.154-0.293l-0.7,0.293l-0.337-0.555l0.232-0.684l-0.388-0.065
		l0.182-0.487l-0.804-0.456l-0.078-0.555l1.788-0.357l-0.026-1.271l0.415,0.521l1.037-0.848l0.414-1.564h-0.492l-0.234-0.651
		l0.675-0.39l-0.027-0.554l0.648-0.065l0.181-1.174l-1.268-1.206l0.905-0.033l-0.57-1.043l0.621,0.293l0.467-0.75l0.077,1.076
		l1.011,0.063l-0.492,1.305l0.622,0.586l-0.183,1.825l0.233,0.194l0.442-0.717l1.269,3.323l0.622,0.358l-0.52-2.64l-0.828-0.489
		l-0.258-1.205l1.086-0.097l-1.398-1.564l1.113-0.782l0.933-1.956l-0.985,0.064l0.052-1.207h-0.647l-0.077-0.488l0.881-0.686
		l-0.518-0.685l-0.905-0.163l0.102-0.359l0.985-0.293l0.44,0.522l0.415-0.099l0.285-0.554l-0.285-0.327l0.673-0.391l-0.182-0.979
		l0.906,0.784l0.543-0.815l1.528-0.393l0.259-0.685l0.494,0.261l0.957-0.359l-0.439,0.687l2.643,1.305l1.011-0.228l-0.365-1.077
		l0.829-1.306l-0.284-3.688l-0.753-1.437l0.415-0.719h0.855l0.518-0.979l0.518-0.099l0.259,0.753l-0.44,0.815l-1.009,0.261
		l0.803,1.046l0.622-0.359l0.363,0.26l-0.933,1.306v3.231l0.648,0.457l0.128,0.75l0.855,0.261l0.182,1.6h0.958l-0.129,0.555
		l-1.216,0.032l-0.39,0.358l-0.026,0.815l-0.957,1.206l-0.031,1.012l-0.619,0.619l-0.078,1.174l2.072,0.456l-0.154,0.684
		l-1.891,0.946l-1.115-0.032l-0.231,0.75l0.672,0.424l-0.206,1.303l0.492,0.62l0.52-0.521l-0.129-0.587l0.363-0.259l0.259,0.521
		l0.31-0.197l-0.31-0.616l0.336-0.424l0.75,0.424l0.854-0.88l0.52,0.586l0.594-0.032l0.078-0.392l-0.933-0.75l-0.103-0.75
		l0.388-0.425l-0.957-0.75l1.113-2.674l0.75,0.458l0.831-0.164l-0.415,1.696l1.243,1.727l0.804,0.1l-0.881-1.858l1.424-1.238
		l0.026-1.338l-0.622-0.88l1.217-0.717l1.918,0.26l-0.156-1.532l0.699,0.293l0.103-0.75l0.958,0.392l0.286-0.489l1.088-0.064
		l0.13-0.358l-0.44-0.556l-1.686-0.261l0.208-0.783l-0.546-0.359l-0.076-0.293l0.853,0.196l0.519-0.523l-0.026-1.501l-0.907-0.425
		l0.051,0.458l-0.958,0.098l-0.75,0.783l-0.621-0.554l-0.233-1.273l-1.166-0.261l-0.933,0.914l-0.258-0.26l0.439-1.078l-0.907-0.163
		l-0.179-1.144l-1.426,0.164l0.207-1.076h2.436l0.698,1.108l0.442-0.979h1.088l0.104-0.36l-0.13-0.327l-0.854,0.163l0.103-0.718
		l-0.543-0.522l-0.805,0.491l-0.18-0.491l-2.927-0.228l-0.311-1.83l0.7,0.359l1.631-0.883l0.311-0.784l0.803,0.522l1.735-0.358
		l0.337-0.687l0.362,0.49l3.549-0.1l2.643,1.341l1.245-0.653l-0.986-1.896l0.414,0.098l2.151-2.517l-0.521-0.556l0.701-1.373h0.492
		L138.805,195.939z" />
		<path id="Jeollabuk-do" class="land Jeollabuk-do" d="M162.017,318.625l1.29-0.557l1.462,1.358l4.309-1.557l7.081-3.428l0.004-8.425l1.982-0.668l2.645-2.006
		l3.635,0.668l3.714,2.265l1.25-0.379l2.163,2.006l0.309,3.737l2.403,0.193l0.024,1.21l0.5,0.805l2.519,0.183l1.454-0.718
		l2.27-0.233l1.875-1.149l1.104,0.164l1.705,1.726l5.234-0.311l-0.615-2.491l4.309,0.312l0,0l2.387-2.013l1.117,1.624l0,0
		l2.926,5.094l0.344,2.767l1.848,4.359h1.232l0,0l3.021-1.719l0,0l0.598,0.162l0,0l0.072,2.18l0,0l0.617,2.803l3.387,0.311
		l3.078-0.623l0.922-1.868l0,0l0.158-2.201l1.012-0.184l0,0l1.865-0.998l2.506,1.203l1.541,1.246l2.771-2.803v-2.482l0,0
		l0.307-0.329l0.775-0.294l1.039,2.267l0,0l0.652,0.564l0,0l2.234,0.557l0,0l1.156,0.291l0,0l1.682,1.041l0,0l0.152,0.916
		l2.568-0.006l0,0l0.354-0.9l0,0l0.875-0.334l0,0l2.693-1.613l0,0l1.354-0.449l0,0l0.883,0.061l1.973,2.217l2.705-2.563l0,0
		l3.438,5.652l1.215,3.303l-0.27,2.761l-1,2.24l0,0l-2.293,1.512l-1.488,2.678l-0.533,1.934l-1.303,0.236l-1.758,1.645l-1.441,0.01
		l0,0l-1.801,1.145l0,0l-1.291,0.057l0,0l-0.701-0.494l0,0l-0.436-0.164l-0.205,0.637l0,0l-0.18,0.582l0,0l-0.66,1.205l0,0
		l-0.797,2.281l-3.223,3.584l-1.648,1.143l-0.773,4.811l0,0l-0.15,1.914l-0.881,0.795l0,0l-0.932,1.447l-1.879,4.932l0,0
		l-0.775,4.727l0,0l-1.568,3.273l0,0l0.17,2.311l0,0l2.049,0.668l0.686,0.701l0,0l-0.078,1.855l0.496,1.047l0,0l1.252,2.266l0,0
		l-0.678,3.334l0,0l0.684,1.924l0,0l1.609,0.426l0,0l0.098,0.545l0,0l-0.547,3.455l-3.654,3.561l-0.807,1.982l-0.334,1.156
		l0.543,2.863l-2.186,2.299l0,0l-0.229,0.205l0,0l-3.029-2.639l-3.26-1.814l0,0l-1.023-0.918l-3.459-1.156l0,0l-1.969,0.109l0,0
		l-1.734,0.982l-2.91,3.785l-0.617,0.441l-1.109,0.021l0,0l-3.15-0.363l-2.352,0.697l0,0l-6.072,0.018l-1.111-0.654l0,0l-1.42-1.369
		l-1.906,1.119l0,0l-3.111-1.35l-1.283,0.832l0,0l-0.953,0.896l0,0l-1.403,0.941l-1.587,0.145l0,0l-2.07-0.537l0,0l-2.559-1.973
		l0.414-3.602l-0.996-2.871l0,0l-1.568,0.014l-0.483-0.682l-0.087-0.934l1.135-1.375l0,0l0.154-2.502l-0.605-1.9l-1.331-1.037
		l-1.786-0.396l-0.696,0.318l-0.969,1.783l-0.985,0.641l-0.525,2.076l0,0l-0.137,1.02l0,0l-1.01,0.693l-1.945-0.566l0,0
		l-1.022-0.896l0,0l-2.487-4.76l-1.083-1.127l-2.907-1.857l-2.983-0.604l-1.546,1.859l-1.07-0.215l0,0l-1.507-0.352l0,0
		l-2.235,0.977l-0.602,0.809l-0.181,1.178l0,0l0.147,3.09l-0.579,0.674l0,0l-1.431,0.945l-0.152,0.682l0,0l0.259,0.771l0,0
		l0.139,0.955l-0.756,2.01l-2.38,1.215l0,0l-3.098,0.963l-1.51,1.492l0,0l-2.046,0.709l-0.952-0.428l0,0l-1.097-0.24l-0.972,0.352
		l-1.434,1.541l-4.291,0.232l0,0l-0.371-1.699h-1.688l-1.233-4.045l-1.848-2.18l-0.152-2.955l-0.772-2.65l-1.846-1.557l0,0
		l-1.847-0.623l0,0l-1.919-0.182l0.025-0.416l-0.438-0.125l-0.726,0.434l-0.726-0.211l3.264-5.605l0.855-2.563l0.622-0.256
		l0.311-1.379l0.311-0.096l0.362,1.121l0.675,0.256l0.466-0.447l-0.492-0.162l0.258-0.961l1.762-1.154l0.985-0.127l1.191,1.057
		l0.725-1.186l1.478-0.896l2.512,0.32l0.232,1.25l0.233-0.994l0.829-0.865l0.44-1.699l0.545,0.16l-0.052-1.221l0.493,0.355
		l0.933-0.771l1.579,0.482l1.945,1.986l0.492,1.061l0.077-0.705l-0.725-1.668l0.336-0.898l-0.958-0.578l0.157-0.674l0.439,0.387
		l0.544-0.771l-1.373,0.033v-0.514l-0.674-0.609l-0.672,0.096l-0.674-0.674l-0.285,0.867l-0.7,0.191l-0.751-0.416l-0.778,0.93
		l-0.673-0.033l0.077-0.48l-0.621-0.447l-0.415,0.768l-1.736-0.256l-2.305,0.545l-0.805-0.32l-1.14,1.092l-0.907-0.066l-0.337-0.994
		l-0.568,1.061l-1.685-0.738l-1.087-2.021l-1.217,0.578l-0.726-1.637l0.389-1.379l0.649-0.514l-0.105-0.482l-0.723-0.064
		l-0.416-0.48l0.855-0.322l0.025-0.545l1.062,0.096l0.855-1.092l1.451-0.576l3.291-3.564l1.812-1.189l1.141,0.611l1.527-1.67
		l0.932-0.451l1.736-2.891l1.295-1.352l-0.131-3.568l-0.57-0.738l1.039-1.609l1.838,0.934l4.56-0.707l4.431,1.189l2.071,1.736
		l0.491,2.219l0.831,0.803l0.672-0.643l-1.217-0.355l0.025-1.543l0.57-0.738l-0.673-2.895l-3.963-2.123l-3.238-2.572l-1.452-0.291
		l1.425-1.48l3.161-1.223l3.575,0.643l0.545-0.418h1.114l0.906-1.127l-0.335-0.965l0.413-1.127l1.763-0.547l1.113-0.869
		l-0.233-0.453l-1.374,0.516l-1.036-0.258l-1.476,0.324l-1.633,1.641l-2.771-0.289l-2.125,0.773l-3.213-0.998l-1.347,1.223
		l-5.105-0.291l-0.31-3.767l0.492-2.771l-2.045-0.676l-2.437,0.193l-0.026-1.096l-1.865-1.48l0.726-0.904l2.719-0.162l0.649,0.389
		l1.475-0.58l0.933,0.162l0.207,0.836l0.7-0.836l0.597,0.32l5.051-1.127l1.633-1.225l2.849,1.127l1.087-0.676l0.597-1.193
		l0.311-1.324L162.017,318.625z" />
		<path id="Jeollanam-do" class="land Jeollanam-do" d="M100.724,517.448l0.364,1.199l-0.596-0.791l-1.217-0.379l-0.674,1.199l-0.439-0.41l0.232-1.199l-0.415,0.348
		l-0.596-0.283l0.468,1.041l-0.44,0.537l-0.467-1.105l-0.468,0.223l-0.543-0.475L95.52,517.7l-1.011-0.283l0.439-0.568l-0.258-0.537
		l-0.934,0.223l0.31-0.854l0.337-0.254l0.391,0.285l0.646-0.758l-1.01-0.314l0.155-0.379l0.622,0.379l0.387-0.379l-0.412-0.379
		l0.854-0.316l1.269,1.674l2.515-0.381l0.776-0.504l-0.207,1.578l0.7,1.105L100.724,517.448z M127.874,493.837l-0.728-0.475
		l0.052-0.41l0.828-0.254l-0.466-1.141l-0.855-0.316l-0.751-1.266l-0.777-0.129l0.181-0.537l-0.776-0.602l-0.079-0.633l-0.907,0.316
		l0.623-1.107l-1.425,0.348l-0.156,0.666l-0.829-0.223l-1.321-1.521l0.751-0.664l-0.724-1.078l-0.987-0.094v-0.506l-3.134-1.236
		l-1.58,0.033l-0.286,0.475l0.544,0.35l-0.389,1.648l0.984,0.221v0.316l-1.476,2.912l-0.544-0.031l-0.285-0.633l-0.079,1.203
		l-0.621-0.189l-0.598,0.604l1.09,1.201l-1.866,0.158l-0.363,1.043l0.726,0.824l-1.114,0.537l-0.493-0.475l-0.026-0.695l0.466-0.887
		l-0.44-0.221l-1.553,2.182l0.207,0.381l-0.364,0.791l-2.2,0.791l-0.519,0.758l-2.461,1.33l0.208,0.697l0.724,0.158v0.854
		l-0.647-0.568l-1.115,0.441l-1.061,1.045l0.13,0.631l-0.779,1.424l2.668,4.553h0.881l0.389-0.824l1.037,0.033l0.286,0.791
		l-1.01,0.439l0.389,0.604l-0.933,1.23h1.632l-0.128-0.727l0.752-0.221l0.907,1.609l1.296-0.221l0.931,0.285l0.104-0.506
		l2.513-0.475l-0.648-1.264l1.217,0.535l0.908-0.883l0.596,0.662l0.881-1.201l1.605,0.129l0.492-0.604l-0.803-0.314l0.441-1.201
		l1.139,0.094l-0.024,0.697h0.362l1.553-0.822l-0.803-0.98l0.881-0.379l0.103,0.602l0.699,0.096l-0.362-1.203l1.139,0.855
		l-0.232-1.805l1.373,1.74l-0.596,0.156l0.233,0.57l0.362,0.348l0.855-0.316l-0.026-1.676l1.166-0.885l0.493-1.393l1.112-0.885
		l-0.7-1.645l0.545-0.824l0.596-0.031l0.155-0.822l-1.191-0.35l0.025-0.854l1.478-0.41l0.57,0.854l0.312-0.41l-0.519-0.98
		L127.874,493.837z M86.762,467.724l0.207-0.506l-1.009-0.699l0.129-0.35l0.907,0.189l-1.243-1.904l0.051-1.461l1.116,0.064
		l0.208-0.479l2.849,0.225l0.182-0.666l0.622,0.189l0.335-1.334l1.141-0.158l0.206-1.461l-0.467-1.367l-0.335-0.094l-0.182,0.443
		l-0.622-0.223l-0.053,0.479l-0.804-0.285l-0.44,0.414l0.052,0.666l-0.675,0.285l0.103,0.539l-1.215-0.254l0.206,0.637l-1.191,0.729
		l-1.193,0.254l-0.958-0.158l-0.053-0.57l-1.01-0.127l-0.44,0.316l-0.285-0.316l-0.154,0.951l0.569,0.254l-0.803,0.383l-0.13-0.541
		l-0.39,0.764l0.57,0.697l-0.44,0.129v1.047l0.39-0.158l-0.7,1.078l0.024,1.176l0.596-0.16l-0.13,0.666l0.726,0.16l0.311,0.697
		l1.32,0.443l0.701-0.189L86.762,467.724z M163.441,515.333l0.467-0.096l0.465-0.916l-0.621-0.758l-1.424,0.031l-0.027-1.01
		l-1.113-1.455l0.025-0.883l-0.674-0.41l0.078-2.814l-1.062-1.201l-0.647-0.096l-0.985-1.197l-1.295-0.098l-0.416-0.441
		l-3.057,1.074l-0.958,0.887l-0.26,0.885l0.57,1.168l-0.362,0.41l0.362,2.021l-0.362,0.631l0.698,0.666l-0.492,0.883l1.942,0.412
		l0.52,0.914l0.646,0.096l0.44,0.789l-0.335,0.381l1.527,1.418l1.53-0.6l2.459,1.266l-0.492-1.771l0.31-0.313l1.167,1.482
		l1.217-0.096l0.75,0.633l0.778-0.033l-0.467-0.883l-0.75-0.379L163.441,515.333z M93.601,470.423l-0.311-0.604l-0.855,0.158
		l-1.451-1.428l-1.244-0.316l-0.465-0.729l-0.053-1.396l-0.441-0.256l-0.155,1.811l-1.216-0.063l0.258,1.396l-0.362,0.602
		l-0.958-0.568l0.258-0.605l-2.071,0.445l-0.209,2.949l0.596,1.65l0.726-0.287l-0.078-0.57l0.467,0.063l0.285,0.668l-0.337,0.443
		l0.829,0.508v-0.477l0.725,0.096l0.025-0.666l0.519,0.029l0.285,0.445l-0.519,0.604l0.129,0.506l0.958,0.316l1.478-0.666
		l0.026-1.078l1.476-1.014l0.155-1.047l1.063,0.285l0.129-1.205H93.601L93.601,470.423z M155.67,529.938l0.543-0.725l-1.606-1.576
		l-1.709-0.568l-0.648,1.545l-0.881-0.094l0.778,0.346l-0.569,0.41l0.569,0.41l0.441-0.473l0.569,1.355l-1.114,0.945l-0.465,1.26
		l-0.466-0.094l-0.233,0.502l0.543,0.477l-0.364,0.629l0.648,0.504l0.051,1.135l1.037-1.008l0.31,0.221l-0.129,1.607l0.986,0.471
		l0.88-1.039l-0.362-0.662l0.595-0.566l-0.363-1.387l0.286-0.221l0.803,0.6l0.259-1.07l-0.413-0.285l-0.881,0.252l-0.052-1.418
		l-1.14-0.377l0.128-0.854L155.67,529.938z M149.79,525.366l-0.778-0.408l0.026-0.602l-1.345-0.348l-0.753,0.348l-0.622-0.535
		l-0.517,0.727l-0.466-1.389l-1.398,0.063l0.699,0.473l0.053,0.537l0.466,0.063v0.6l-0.881,0.096l-0.26,0.756l0.311,0.223
		l0.286-0.537l0.363,0.314l-0.466,0.633l-0.648,0.031l0.545,0.314l-0.597,0.598l0.439,0.348l-0.905,0.41l1.579,0.41l-0.053,1.166
		l2.54,0.535l-1.322-1.543l0.311-0.381l1.659-0.125l-0.103,0.914l1.605,0.189l0.26-0.223l-0.234-0.723l-0.984-1.199h1.789
		l0.259-0.631l-0.572-0.283L149.79,525.366z M149.245,531.452l-0.363-0.535l-2.281-0.41l-0.647,0.441l0.053,0.566l-0.389-0.252
		l-0.104-0.852l-1.373,0.283l-0.027-0.725l-1.502-0.883l-1.58,1.291l-0.57,0.033l-0.027,0.566l-1.061,0.6l0.466,0.85l-0.544,0.729
		l0.519,0.281l-0.519,0.6l0.829,1.953l0.622-0.441l0.75,0.506l3.264-1.607l0.389-1.039l0.958-0.031l-0.233-0.504l0.647-0.41
		l-0.182-0.631l0.778,0.156l0.337-0.756l1.139,2.02l0.054-1.672l1.216,1.387l0.701-0.945l-0.233-0.914L149.245,531.452z
		 M94.118,482.722l-0.439,0.539l0.102,0.729l0.596,0.508l-0.259,1.172l0.959-0.125l-0.181-0.855l0.57,0.096l0.156-0.539l0.596,0.98
		l0.751-0.568l0.597,0.537l-0.079-0.348l0.519-0.127l-0.182-0.475l0.543-0.697l-0.415-1.109l-0.699,0.633l0.233-1.994l-1.423,0.443
		l-0.312-0.35l0.208-0.604l-0.466,0.285l-0.26-0.602l0.025-0.918l0.648-0.35l0.104-0.855l-1.037,0.252l0.156-0.791l-0.466,0.35
		l-0.931-0.381l-0.442,0.477l0.597,1.428l-0.544,1.297l0.311,0.57l-0.286,0.668l0.804-0.445l0.594,0.572l-0.257,0.695
		L94.118,482.722z M117.899,451.431l-0.336-1.018l-0.233,1.336l-0.518,0.479l-2.047-0.383l-0.725-0.51l-0.466,1.813l1.217,0.096
		l1.192,0.826l0.856,0.096l1.553-1.875l1.322,0.063l0.335,0.412l1.452-0.125l0.363,0.857l0.439-0.605l0.83,0.031l0.622,0.732
		l-0.052,0.541l0.701-0.287l0.102,0.922l-0.466,0.096l-0.233,0.762l-0.985,0.223l0.441,0.668l1.736,0.539l0.181-0.951l0.311,0.412
		l1.167-0.635l-0.439-1.939l0.777-0.16l-0.286-1.588l-1.062,0.445l-0.414-0.764l0.544-0.189l-0.104-0.318l-1.916-0.096l-1.166,0.414
		l-0.958-0.826l1.01-0.479l-1.063-0.73l0.363-0.477l0.776,0.285l0.053-1.24l0.674,0.541l0.362-0.73l0.571-0.16l0.57,0.859
		l0.206-0.352l-0.026-0.984l-1.036-0.352l-0.389-0.891l-1.217-0.287l-0.286,0.543l-0.725-0.063l-0.647-1.4l-0.648-0.254
		l-1.554,1.049l-0.129,0.318l1.293,0.984l0.882,1.654l-1.011,0.637l-0.646-0.668l-0.519,0.063l-0.208,1.623l0.7,0.635l-0.285,0.572
		L117.899,451.431z M103.367,468.456l0.828-1.334l1.399-0.127l-0.312,0.729l0.805,0.412l0.129,1.875l0.752-0.445l1.113,0.57
		l0.881-0.697l-0.154-1.205l0.439-0.572l-0.622-2.41l-1.244-0.795l0.079-0.857l-1.761,0.668l-0.987-0.764l-0.699-1.459l-1.708,0.537
		l-1.788-0.92l0.05,0.891l-0.388,0.316h-0.468v-0.57l-0.801,0.283l-0.623-0.252l0.26,0.412l0.985,0.158l0.439,1.43l-0.699,0.508
		l-0.39,1.334l0.233,0.285l1.037-1.08l0.985-0.125l0.104,1.014l0.648-0.285l-0.363,1.873l1.165-0.158l-0.127,0.412L103.367,468.456z
		 M111.061,476.7l-1.502,0.541l-0.181-0.697l0.492-0.824l-0.596-0.73l-0.623,0.127v-0.791l-0.984-0.064l-0.207-0.666l-0.596-0.221
		l-0.959,0.314l-0.622,1.555l-0.777-0.57l-0.311,0.953l-1.165,0.094l0.258,1.016l0.985-0.635l0.57,0.73l-0.441,1.203l-0.596,0.412
		l0.441,0.604l-0.364,0.76l0.622,0.254l0.777-0.635l1.244,0.064l-0.052-0.666l0.519-0.285h0.958l0.208,0.604l0.492-0.033
		l0.623-1.043l1.502-0.16l0.364-0.412L111.061,476.7z M107.821,426.315l-0.466,1.881l0.57-0.797l0.13,0.701l0.958-0.287
		l-0.542,0.766l1.864,0.383l-0.026-0.479l0.441-0.129l0.829,1.053l1.76-0.158l0.96,0.604l-0.415,1.656l0.906,0.191l0.855,1.592
		l0.83,0.352l0.57-0.225l0.957-1.91l-1.139-0.732l-0.388-2.422l-1.399-0.988l-0.052-1.209l0.545-1.529l-0.519-0.641l-1.371,0.895
		l-0.39-1.053l-0.726-0.225l-1.217,0.574l0.104-0.668l-1.09-0.574l-0.362,0.352l-0.673-0.127l-0.312,0.699l-0.828-0.158
		l-1.115,0.828l-0.077,1.084L107.821,426.315z M99.948,451.938l-0.622,0.955l-1.555,0.285l1.658,2.543l1.347,1.303l0.518,1.018
		l-0.155,1.049l2.175-0.35l0.492-1.398l-0.905-1.652l0.672-0.541l0.104-0.604l1.113,0.51l1.581-1.24l-1.011-1.08l-0.699-0.031
		l-0.026-0.795l0.545-0.316l1.269,0.379l0.596-0.793l-0.389-0.51l-0.44,0.223l-0.544-1.525l-0.465,0.766l-0.674-0.605l-0.699,0.127
		l-0.804-0.412l-0.57,0.381l0.544,0.795l-0.544,0.443l0.154,0.541l0.881,0.73l-0.493,0.924l-2.1-0.637l-0.336-0.637L99.948,451.938z
		 M101.449,435.714l0.701,0.51l1.423-0.031l0.233-0.479l0.934-0.127l0.751,0.445l1.813-0.031l0.699-1.146l-0.517-0.191l0.44-0.539
		l-0.362-0.416l-2.799-0.986l-0.569,0.033l-0.232,0.986l-0.855-0.064l-0.647,1.529l-0.544-0.318L101.449,435.714z M90.725,451.017
		l-0.517,0.383l0.595,0.191l0.44-0.35l0.57,0.443l0.362-0.508l0.959,0.793l0.467-0.604l1.734,0.57l1.037,1.846l0.362-0.383
		l-0.544-1.398l0.752-0.223l0.207,0.764l1.423-0.445l-0.517-0.57l0.181-0.225l1.944,0.096l-0.597-1.43l1.892-0.922l0.052-0.572
		l-1.009-0.127l-0.467-0.797l1.501-1.398l-1.398-0.225l-0.078-0.412l0.648-0.285l0.128-0.51l-1.215,0.287l-0.312-0.51l0.414-0.795
		l-2.073-0.859l0.39,2.164l-0.57,0.953l-1.01,0.189l-0.413-1.111l-0.543,0.031l0.308,0.479l-0.414,0.699l-1.088,0.158l-0.7-0.51
		l-0.053,0.955l-0.879,1.621l-0.519,0.35l-0.491-0.223l0.286,0.764l-0.52,0.73l-0.983-0.287l-1.114,0.32l-0.027,0.477l1.089-0.316
		L90.725,451.017z M96.889,428.833l0.856-0.381l-0.053,0.893l0.648,0.125l-0.415-1.369l1.555-0.256l-0.258,1.148l0.258,0.445
		l0.801,0.064l0.104,0.381l0.804-0.127l0.079,0.574l0.542,0.063l-0.05-0.51h0.466l-0.389-1.053l1.503,0.098l-0.674-0.703
		l-0.129-0.826l0.596,0.316l0.621-0.541l-0.156-0.479l-1.319-0.51l-0.286-0.768l0.312-1.496l0.543-0.383l0.621,0.352l-0.183-1.467
		l0.495-1.629l0.361-0.541l1.711-0.193l0.258-0.635l1.451-0.289l-1.27-0.223l-2.746,0.732l-0.571-0.285l0.233,0.541l-0.335,0.543
		l-2.773,2.967l-1.321,0.67l-1.838-0.1l0.181,1.086l-0.855,1.18l1.555,0.924l-0.312,0.861l-1.659-0.256v0.541l0.493-0.158
		L96.889,428.833z M41.401,470.612l-0.829,0.381l-0.311,1.016h-0.675l-0.646-0.73l1.269-1.047l-2.461,0.127l-0.596,0.443
		l0.053,1.238l-1.063,1.016l-0.026,1.236l-0.96,0.666l0.233,0.729l0.829,0.285l-0.051,0.316L35,476.571l0.932,1.65l1.555,0.568
		l-0.079-1.68l0.596-0.156l0.027-0.445l0.984-0.094l-0.543-1.586h1.217L40,474.544l0.334-0.191l0.235-2.061l0.958-0.508l0.336,0.57
		l0.543-0.697l-0.231-0.762l-0.492,0.063L41.401,470.612z M178.131,528.552l-0.805,0.504l-0.389-0.156l0.414-0.348l0.079-0.852
		l-0.778-0.883l0.778-0.441l-0.079-0.758l-1.554,0.031l-0.312-0.566l-0.672,0.063l-0.285,0.566l-0.881,0.221l-0.181,0.822
		l-1.167,0.313l0.467,0.441l-0.907,1.104l0.466,0.979l-0.776-0.158l-0.207,0.504l0.336,0.695l0.44-0.506l0.363,0.348l-0.985,0.883
		l0.569,0.189l-0.207,0.504l0.337,0.693l0.311-1.293l0.855-0.473l1.166,1.262l-0.079,0.598l1.762-0.693l0.778,0.6l1.01-0.912
		l0.596-2.523L178.131,528.552z M257.141,448.284l0.855,0.604l0.826-0.033l-0.127-3.434l-1.684-1.688l-2.668-0.063l0.258-1.719
		l-0.777-0.637l-1.424,1.561l-0.129,0.635l-0.984,0.383l0.053,2.004l5.285,1.209l0.49,0.699l0.156-1.877l-0.441-0.285v-0.541
		l0.932-0.35l0.779,1.533l0.152,2.377l-1.242-0.316L257.141,448.284z M256.908,482.343l0.49,0.633l0.988-0.158l0.881,0.539
		l1.529-0.602l0.152-0.855l-1.84-1.236l0.391-0.412l-0.078-1.742l0.83-0.348l-0.182-2.887l0.777-0.285l-0.051-0.443l-1.012,0.127
		l-0.182-0.508l0.725-0.223l-0.57-0.063l-0.232-0.635l-0.727,0.316l-0.775-1.236l0.441-0.697l-0.156-1.174l-0.439-0.16l-0.83,0.508
		l-0.648-1.076l0.57-0.762l0.828,0.666l0.439-0.795l0.184,0.445l-0.469,0.635l0.807-0.127l0.1,0.441h0.391l-0.232-1.996l-3.99-1.969
		l-0.465,0.031l-0.26,0.604l0.465,0.158l0.469,1.492l1.113,0.158l-0.416,1.775l0.234,0.764l1.426,0.695l-1.764,0.318l-0.52,0.73
		l0.027,0.729l-1.734,1.459l-0.518,0.031l-0.568,1.426l0.648,0.951l-1.322,1.521l0.879,0.951l1.633,0.223l-0.023,0.762l1.164,1.393
		L256.908,482.343z M250.924,467.47l-1.293-1.111l-0.779-0.156l0.338-0.668l-0.961-0.949l-0.775-0.129l0.051-0.73l-0.596,0.16
		l0.18,1.014l-0.775,0.383l-1.037,2.729l-0.412-0.063l0.697,1.441l-1.527-0.553v-0.826l-0.334,0.223l-0.08,1.08l-0.258-0.256
		l-0.469,0.256l0.053,0.506l1.244,0.764l-0.416,1.016l0.701,0.477l0.674-0.129l-0.701,0.539l-0.828-0.189v0.316l0.699,0.352
		l0.598,1.869l-0.648,0.508l0.621,0.666l0.311-0.35l0.361,0.191l-0.205,0.791l-0.986,0.666l1.012,0.031l0.414,1.143l-0.805,0.158
		l-0.232-0.762l-0.932,0.316l0.182-0.35l-1.141-1.27l-2.383-0.98l-1.191,0.381l0.699,2.188l-0.26-0.033l-1.424-2.727l-0.57-0.57
		l-0.545,0.063l-0.209-0.854l0.338-0.541l0.623-0.029l0.205-0.605l-1.088-0.348l0.053-1.588l0.623-0.063l-0.285-0.285l0.518-0.412
		l1.32,0.189l0.156-0.316l-0.492-0.285l-0.777,0.221v-0.824l-1.01,0.953l0.363-1.523l-0.752,0.381l-0.053-0.285l0.232-0.73
		l1.219-0.539l-0.232-0.92l0.623,0.475l1.035-0.568l-0.078-0.699l0.545-0.031l-0.131-0.697l1.893,0.063l-1.09-0.697l-0.699,0.096
		l0.621-0.826l-0.674-1.334l-0.338,0.891l-0.645,0.189l-0.025-1.588l-1.271-0.381l1.193-0.254l0.154-0.479l-0.387,0.033l-0.209-0.92
		l-0.752-0.541l-0.131-1.303l-1.086-0.35l-0.207,0.539l-0.594-0.031l-1.193-0.383l0.18-1.617l1.141-0.986l0.441-1.176l-0.961,0.127
		l-0.674-0.381l-0.775-4.006l-1.217,0.604l-1.295,0.098l0.182,3.051l-0.598,0.764l-1.76-0.539l-0.52,0.477l-0.982,0.096
		l-0.158,0.477l-0.646-0.127l-0.051-1.398l-0.416,0.031l-0.412,1.367l-3.316,1.334l-1.271-1.334l-2.305-0.096l-0.051,0.348
		l0.752,0.414l1.502,0.414l0.906,1.461l0.52-0.285l1.629,0.508l0.908-0.412l0.258,0.223l-1.477,1.303l-1.578,0.699l-0.699,1.08
		l-0.08,0.92l-1.916-0.096l0.311,0.316l2.201,0.129l0.881,0.793l-0.387,1.238l-1.635,0.793l-0.723,1.078l1.525,3.396l0.779,0.637
		l0.387-0.16l0.52,0.383v0.539l1.553,0.887l0.209,0.953l0.596,0.381l-0.441,0.697l0.828-0.443l0.986,0.475l-0.232,1.365l1.191-0.824
		l-0.053,0.824l0.934,0.094l-0.467-1.078l1.449-0.125l-0.023,0.854l-0.414,0.064l0.051,1.078l1.527,0.508l-0.025,0.889l-1.166-0.666
		l-0.336,0.822l-0.545-0.127l-0.363-0.824l-0.467,0.445l0.83,0.918l2.744,0.604l-0.258,0.697l0.414,0.666l-0.182,0.506l0.855,1.143
		l-0.025,1.234l-1.686,1.426l-0.053,0.982l-0.543-0.539l-0.465-0.125l-0.363,0.568l-1.037-0.697v-1.203l-0.389-0.063l-0.053,0.887
		l-1.164,0.791l-0.986-0.57v-0.734l-1.449,0.633l-0.361-0.221l0.129-0.477l-0.676-0.223l-1.398,0.541l-2.512,0.029l0.049,0.666
		l2.334-0.189l0.232,0.951l1.295-0.793l-0.387,1.361l-0.621,0.57l-1.557-0.189l-0.18,1.076l1.943-0.568l1.061,0.443l1.166-0.064
		l-0.621,0.568l1.346-0.314l0.623,0.568l-0.596,0.762l0.414,0.947l-0.623-0.283l-0.232,0.762l-0.389-0.033l0.723,1.203l-0.285,0.285
		l0.184,0.695l-1.242-0.822l-0.803-0.064l-0.469,0.635l0.365,0.127l-0.234,0.918h-1.037l-0.363-0.602l-1.035,0.727l1.111,1.426
		l-0.232,0.918l-0.285-0.381l-0.465,0.35l-0.131-0.443l-0.439,0.855l-0.389-0.064l-0.207-0.729l-1.115-0.57l-0.465,1.615
		l-0.311-0.064l0.18-0.631l-0.492,0.031l-1.061,0.918l-0.57-0.096l1.113,1.012l-0.363,0.443l-0.828-0.729l-0.467,0.475l1.219,0.762
		v0.377l0.439-0.189l0.258,1.014l-1.111,0.822l-0.984-0.063l-0.674-0.918l-0.518,0.127l0.025-0.633l1.086,0.029l-0.699-0.979
		l-0.389,0.441l-0.104-0.664l-0.674,0.189l0.336-0.854l-0.803-0.031l-0.57-0.76l-1.631-0.443l0.439-1.297l0.959-0.633l-2.721-2.627
		l-0.959,0.031l-0.025,0.729l-1.165-0.379l0.208-0.793l-1.141-0.982l-0.647-0.063l-0.57-1.043l0.078,2.596l-0.882-0.477
		l-0.387-0.854l-1.116,0.063l-0.103-0.443l-0.779,0.918l-0.051,0.822l-0.492-0.664l-2.9,0.35l-1.451-0.793l0.078-1.234l-0.932-0.633
		l0.463-1.932l1.115-1.109l0.57,0.033l-0.182-0.635l1.089-0.697l-0.235-0.664l0.57-1.205l0.209,0.793l0.725,0.283l1.218-0.379
		l-0.364-0.92l0.416-0.252v-2.41l2.514-2.535l2.643-0.666l0.414-2.473l1.088-1.078l-0.699-0.855l0.311-0.795l1.141-0.539
		l1.061-1.428l0.674,0.537l0.416-0.854l0.543,0.063l-0.078,2.252l0.492,0.031l0.078,0.477l-0.725,2.41l0.75,0.793l2.643,0.254
		l0.648-1.141l-0.363-0.824l0.932-1.047l0.465-1.904l1.115-0.35l-0.104-0.508l-1.037-0.031l-0.621-4.158l-1.242-0.127l-0.779,0.381
		l-1.113,2.189l-0.439-0.604l-1.502-0.635l-0.754,1.143l-0.775-0.76l-0.932-2.541l-1.529,0.35l-1.709,2.158l-0.338,2.254
		l-0.775,1.363l-0.699,0.287l-0.675,1.174l-3.809,0.127l-0.673-0.982l-0.619-0.225l-1.35,1.238l-0.438,1.49l-1.114,0.92
		l-2.904,1.078l-0.412,0.475l0.154,0.699l-0.621,0.285l-0.881,1.49l-0.854-0.064l-1.865,1.332l-3.289-0.381l-1.971,0.316l0.83,0.539
		l0.646-0.443l1.53,0.158l-0.027,0.951l1.375,0.76l-0.025,0.35l-0.985,0.096l0.13,0.76l-0.57,0.443l-0.208,1.363l-1.062,0.949
		l0.934,0.695l1.605-0.314l-0.129,1.486l-0.26,0.287l-0.492-0.889l-0.828,0.127l0.025,2.471l-1.529-0.381l-1.139,1.299l0.232,0.73
		l1.4,1.297l-0.026,0.506h-0.907l-0.362,1.553l1.165,0.822l0.311,1.266l-0.725,0.285l-0.362-0.316l-0.933,0.854l-1.375-1.582
		l-0.568,0.822l0.363,1.582l0.598,0.729l-0.83,1.045l-1.037-0.033l-0.596-0.758l-4.663-0.189l1.504,2.467l-0.156,1.453l-1.191-1.803
		l-1.529-0.506l-1.037-1.074l-0.622-0.189l-0.802,0.602l-1.088-0.064l-1.27-0.918l0.286-1.391l-2.02-0.064l0.078-0.854l0.932-0.379
		l-0.726-3.135l0.26-0.379l-0.466-0.316l0.466-1.584l-0.103-1.582l0.674-0.76h-0.519l-0.13-0.508l-0.154-0.887l0.569-0.824
		l-0.854-1.012l0.232-1.172l-1.009-0.92l0.362-0.381l-0.362-2.408l0.492-1.584l0.647-0.604l-0.31-0.189l-0.674,1.967l-0.855,0.76
		l-0.596,9.406l0.544,0.635l-0.959,0.254l-0.077,0.412l0.259,2.215l0.414,0.412l-0.647,0.314l0.103,0.541l-0.674-0.098l-1.294,0.791
		l0.777,1.551l-2.176,3.291l-0.545-0.381l-0.829,0.791l-0.958-0.127l-1.684,1.613l-0.621-0.191l0.362,0.799l-0.439,0.15l-0.804-0.82
		l-0.597,0.693l-0.75-0.219l-0.519,1.484l-0.958-0.254l-0.544,1.043l-0.543-0.568l-0.596,0.791l0.491,0.568l-0.932,1.168l0.284,0.76
		l0.544-0.031l-0.053,2.34l-1.683,1.072l0.596,0.506l-0.778,1.012l0.286,0.758l-0.207,1.104l0.44,0.506l-0.804,0.316l-0.985-0.885
		l-2.435-0.283l-1.477,2.209l-1.425,0.254l-0.337,1.01l-0.855-0.314l0.259-2.209l-0.648-0.539l1.373-1.674l-0.596-1.139v-1.926
		l-1.424-0.633l-0.545,0.729H138.1l-1.113,1.137l-0.647,0.158l-0.001-0.633l-0.595-0.441l-0.077-0.537l0.388-0.125l0.907,0.852
		l0.207-0.348l-0.414-0.662l0.958,0.094l-0.83-0.664l0.365-0.693l-0.726-0.127l-0.052-0.729l2.357-0.41l-1.114-1.58l0.286-0.475
		l-0.234-0.379l1.503,0.475l0.157,0.441l1.061-1.645l-0.725-1.264l0.492-0.855l-0.465-0.695l-1.115,0.918l-0.466-0.379l-0.804,0.094
		v0.98l-0.699-0.223l-0.648-1.297l-1.245-0.916l-0.102-0.381l0.933-0.475l0.595,0.76l0.518-0.285L136,497.917l-0.05-0.604
		l0.621-0.346l-0.412-0.697l-0.622,0.254l-0.728-0.949l0.027-0.568l0.958-0.158l-0.907-2.059l1.321-0.822l-0.777-1.361l-1.891-0.156
		l0.129-0.568l1.01-0.191l1.037-0.92l-0.312-0.822l-0.958,0.191l-0.077,0.504l-0.984-0.063l-0.027-1.584l-2.252-0.791l0.206,1.203
		l-1.477,0.252l0.026,0.953l-1.424,0.695l-0.777-0.793l0.907-1.107v-1.234l-2.177-0.094l-2.822-1.428l-1.971,0.697l-0.932-1.141
		l0.854-1.014l-3.134-1.174l0.518-0.98l-0.44-0.604l0.311-1.014l-0.285-0.35l1.217-1.014l-0.415-0.57l-0.441,0.633l-1.167-0.285
		l-1.166-1.143l-0.388-2.789l0.388-0.635l-0.439-0.76l0.75-0.697l-0.44-1.08l0.286-1.363l0.569,0.443l0.674-1.109v-1.746
		l1.043-3.393l1.297-0.541l1.036,0.984l-0.312,0.73l1.244-0.127l-0.285,0.762l0.907,0.508l0.362,1.969l0.829,0.254l0.908,1.143
		l0.024,0.635l-1.555,0.666l-0.233,1.936l0.39,0.824l-0.699,0.984l0.206,0.57l2.306,0.855l-0.102,2.883l1.293,0.635l0.259,1.84
		l0.416-1.303l0.596-0.188l1.995,1.363l0.701-0.191l-0.13,0.666l4.093,2.219l-0.181-0.887l2.849-1.457l0.441-1.143l-0.079-0.539
		h-0.776l-0.647,0.635l-0.543-0.285l-0.803,0.633l-0.441-2.885h-0.517l-0.648,1.174l-0.803-2.439l-1.038,0.252l0.495-1.836
		l-0.727-0.064l0.052-0.824l-0.854,0.031l-0.31,1.234l-0.595-0.188l-0.779,1.107l-1.063-0.949l1.628-1.969l-0.177-1.871
		l-0.517-0.537l0.596,0.094l0.517,0.824l0.467-0.412l-0.182-0.76l-0.57-0.225l0.026-0.793l-1.035-0.189l0.05-0.539l0.648,0.316
		l0.337-0.729l1.529,2.125l-0.104,0.889l0.363,0.477l0.933-1.078l0.571-0.063l0.128-0.762l0.492,0.6l0.544-0.951l1.114,0.666
		l-0.156,0.635l-1.295,0.889l-1.087,2.063l1.113,1.268l0.959-0.381l-0.025,0.889l0.881,0.125l0.724,1.08l3.887,0.506l1.555,1.363
		l0.986-1.332l-1.296-0.381l-0.233-1.236l0.363-0.158l2.176,0.225l0.31,0.889l3.213,1.395l3.057,0.283l0.438-0.441l-0.88-0.762
		l-1.89-0.096l-1.399-1.395l-1.58-0.826l-0.363-1.361l0.595-1.301l-1.243-0.381l-1.114,0.252l-1.166-2.918l-2.642-3.172
		l-0.933-0.383l-1.503,0.127l-0.724,0.191l-0.7,0.92l-0.493-0.254l-0.232-1.395l-1.244,0.029l-0.44,0.508l-0.233-0.666l-0.88,0.254
		l-0.441-0.666l-0.648,0.381l-0.052,0.604l-1.087-0.129l0.181,0.637l-0.776,0.35l-2.308-0.857l-0.05-0.477l1.658-1.078l-0.26-0.762
		l0.544-0.477l-0.492-0.318l1.139-0.443l-0.078-1.334l-1.968,0.127l-0.7-2.166l0.854-1.043v-0.793l0.467-0.668l0.597,0.191
		l0.181-0.922l0.337-0.445l0.389,0.127l0.128-0.697l0.776-0.604l1.01-0.098l-0.7-0.539l-0.129-1.971l-0.752-0.381l0.621-1.305
		l-0.724-0.254l-0.543-0.098l0.439-1.238l-0.155-0.73l0.414,0.254l0.415-0.254l0.439-1.273l-1.268-1.209l-0.182-0.668l0.647-0.73
		l-0.777-1.209l0.518-2.229l-1.14-0.764l-0.104-1.91l-0.803-1.336l-0.441,0.57l0.13,2.197l-0.855,0.699l0.079,0.766l0.777-0.129
		l0.621,0.732l-0.882,1.432l0.751,0.51l-0.699,0.859l0.389,0.922l-0.233,0.414l-1.503-0.127l-0.103,0.541l-0.622,0.223l-1.348-0.158
		l-0.232-1.623l-0.933-0.223l-0.492,0.699l-0.467-0.223l-0.18-0.732l0.439,0.191l1.037-1.242l-1.062-0.477l-0.234-0.893
		l-1.113-1.145l0.206-1.18l0.494-0.096l0.206-0.891l0.7-0.383l-0.285,1.4l0.672,0.033l0.26-0.701l0.802,1.688l1.866-0.957
		l0.336-0.893l0.622-0.156l-0.027-0.988l-1.837-0.414l4.843-3.152l-0.079-1.496l-0.881-1.117l-0.957,0.035l-1.633,0.795l-0.413-1.02
		l0.413-0.445l-0.258-0.574l-1.632-0.414l0.804-0.256l0.438-0.699l-1.14-2.17l-1.32-0.029l-0.131,0.732l-1.347-0.957l1.192,2.23
		l-1.348,1.051l1.036,0.289l0.208,0.604l-1.27,1.211l-0.699-1.719l-0.752-0.352l-0.777,0.893l-1.27,0.096l0.079-1.053l-0.675-1.943
		l-1.009-0.668l0.413-1.277l1.633-0.127l-2.177-2.424l0.803-1.912l0.39,0.479l0.362-0.17l-0.467-0.756l0.208-0.541l1.451-0.893
		l0.699,1.912l0.985-0.223l-0.311-0.512l0.363-0.096l1.347,0.414l0.079,1.246l1.269-0.064l0.907-1.627l-0.674-0.447l0.078-0.318
		l0.363-0.385l0.595,0.385l1.063-1.277l0.052,2.555l-0.778,1.625l0.285,0.191l-0.181,0.512l-0.752,0.223l-0.181,0.893l0.518,0.383
		l0.053,0.828l-0.517,0.354l1.191,0.225l0.881-1.021l-0.079,1.625l-0.673,0.445l0.052,0.574l0.363,0.256l0.232-0.447l0.622,0.605
		l0.726-0.572l0.207,1.941l0.415-0.096l0.751-2.104l1.037-0.541l-0.648,2.264l0.466,0.158l0.648-1.338l0.986,1.529l0.026,0.414
		l-1.555,1.848l0.959-0.031l0.102,1.85l2.203-0.064l-0.596-0.988l0.025-0.764l0.415-0.605l1.658-0.797l1.424-2.295l-2.045-0.955
		l2.072-0.67l0.648-1.18l-1.686-0.637l-2.331-0.098l-1.605-3.156l-1.191-0.512l-0.804-1.402l0.026-0.732l-0.907-0.129l-0.597-1.055
		l-0.646-0.063l0.286-1.34l-0.985-0.48l1.604-0.543l-0.181-1.115l0.57-0.287l0.285-1.148l-1.762,0.895l-0.025-0.416l-0.984-0.225
		l-1.27,0.607l-0.39-0.607l-1.166-0.189l0.183-0.768l-0.44-0.957l-0.569-0.543l-0.778-0.064v-0.512l1.088-2.074l0.648,1.531
		l0.646,0.543l0.025,0.768l0.622-1.15l0.728-0.223l-0.546-0.99l1.581-2.172l-0.285-0.703l-1.269,0.447l-0.467-0.416l0.726-1.311
		l3.083,0.033l0.622-2.365l0.103-2.91l1.736-4.443l1.45,0.574l0.674-0.189l0.932,0.99l1.58,0.191l-0.232-0.672l-1.035,0.191
		l-0.312-0.736l-1.84-1.15l-0.75-2.398l0.726-1.793l-0.286-0.545l1.452-1.408l2.202,0.162l0.31-0.578l1.918,0.182l0,0l1.847,0.623
		l0,0l1.846,1.557l0.771,2.652l0.152,2.951l1.848,2.182l1.233,4.047h1.688l0.371,1.697l0,0l4.291-0.232l1.433-1.539l0.971-0.354
		l1.099,0.24l0,0l0.951,0.428l2.046-0.709l0,0l1.511-1.492l3.098-0.961l0,0l2.381-1.217l0.755-2.012l-0.139-0.955l0,0l-0.259-0.77
		l0,0l0.151-0.682l1.432-0.945l0,0l0.578-0.674l-0.147-3.09l0,0l0.181-1.18l0.602-0.807l2.235-0.98l0,0l1.508,0.355l0,0l1.071,0.215
		l1.545-1.861l2.984,0.604l2.906,1.855l1.083,1.129l2.487,4.762l0,0l1.022,0.895l0,0l1.944,0.566l1.011-0.693l0,0l0.136-1.018l0,0
		l0.527-2.078l0.984-0.641l0.969-1.783l0.697-0.316l1.783,0.395l1.332,1.039l0.606,1.898l-0.155,2.504l0,0l-1.133,1.373l0.086,0.936
		l0.483,0.682l1.567-0.016l0,0l0.998,2.871l-0.414,3.604l2.557,1.973l0,0l2.07,0.537l0,0l1.588-0.145l1.402-0.939l0,0l0.953-0.896
		l0,0l1.283-0.834l3.111,1.352l0,0l1.906-1.119l1.42,1.369l0,0l1.111,0.654l6.074-0.02l0,0l2.35-0.695l3.15,0.361l0,0l1.111-0.02
		l0.615-0.441l2.91-3.787l1.734-0.98l0,0l1.969-0.109l0,0l3.459,1.156l1.023,0.918l0,0l3.26,1.813l3.029,2.641l0,0l-0.773,0.695
		l-0.016,1.559l2.623,2.982l0.895,9.197l1.283,1.686l2.191,1.127l3.004,3.633l0.191,2.896l0,0l1.076,1.043l0,0l0.756,1.236
		l1.598,0.686l1.162,1.869l0,0l1.721,1.326l0,0l1.557,4.104l-0.037,2.928l0.688,0.322l0.002,0.863l-1.814,0.287l-0.934-0.379
		l-1.348-2.963l-0.568-0.031l-0.623,1.145l-1.736,0.543l-0.051-2.896l-1.4-2.037l0.078,1.623l0.674,0.543l0.363,3.021l-1.529,1.178
		l-0.232,0.924l-0.621-0.191l-0.676,0.893l-0.699,0.063l-0.18,0.479l0.465,0.955l-1.605,1.111l-1.555,0.412l0.207,0.479
		l-1.141,0.891l-0.934-1.209l0.443-0.572l-2.047,0.223l-0.469-1.305l-1.033-0.953l0.154-2.449l-0.697-0.668l0.283,1.209
		l-0.416,1.781l-1.139,0.189l-0.311-0.287l-0.492,0.637l1.141,0.287l1.27,1.592l-0.494,0.795l0.598,1.018l-0.492,0.191l-0.492-1.02
		l-0.727,0.701l-0.596-0.541l-0.57,0.635l1.088,0.129l0.336,0.412l0.08,1.367l1.373,1.367l-0.26,0.414l0.363,0.604l0.363,0.223
		l0.414-0.414l0.674,1.02l1.398-0.16l-0.076,0.764h-0.805l-0.053,0.541l0.234,0.697l0.906,0.73l0.025-1.111h0.83l1.449,0.793
		l1.193-1.303l1.318-0.477l0.908-1.525l-0.545-0.445l0.053-0.762l0.596,0.922l0.104-0.381l1.477,0.094l1.555-0.668l-0.934,0.859
		l1.738,0.699l-0.129-0.764l2.277-0.826l1.322,1.336l-0.828,0.189l0.309,0.855l-0.699,2.318l0.648,0.193l-0.674,0.35l0.129,2.16
		l-0.881-0.064l-0.285,1.525l-1.037,1.082l0.75,1.395l-0.336,1.176l0.52,0.383l-0.57,0.412l0.775,0.57l-0.18,0.604l-0.416,0.285
		l-1.555-0.285l-0.26,1.111l-2.484,0.951l-0.648-0.031L250.924,467.47z M187.544,415.542l-2.577-0.264l-1.008-4.529l-1.916-2.334
		l-1.804-0.869l-2.405-0.086l-2.406,0.955l-1.977,1.043l-1.976,2.086l-1.461,0.086l-2.063-0.695l-1.46-1.391l-0.602-2.172
		l-2.149-0.086l-2.061,5.301l-2.319-0.086l-1.718,2.084l-1.117,4.781l0.429,4.084l7.132,1.041l1.805,2.26l1.891,3.824h3.694
		l3.351-1.998h3.779l1.461-1.043l3.094,0.607l3.35-2.348l1.375-1.824l0.773-1.65l0.086-2.607l0.859-1.824v-1.391L187.544,415.542z
		 M235.742,498.837l-1.578-0.604l0.078-0.41l-1.479-1.865l-0.051,1.139l-0.416,0.189l-0.26-0.602l-0.439,1.012l-0.906-0.031
		l0.648-0.822l-1.658,0.158l-0.518-0.791l-0.908-0.568l-0.311,0.189v1.93l0.391,0.633l-0.805,0.477l0.156,0.283l1.061-0.76
		l0.52,0.252l0.439-0.283l0.984,0.602l-0.209,0.633l-1.449-0.602l-0.389,0.381l1.191,1.264l0.881-0.506l0.207,0.506h0.57
		l0.205,0.822l-0.748,0.918l0.051,0.475l0.439,0.221l2.357-1.201l0.311-0.506l0.984,0.475l0.75-0.949l-0.232-0.693L235.742,498.837z
		 M260.096,493.3l-0.545,0.031l0.027-0.664l-2.436-0.855l1.371-0.063v-0.443l-0.127-0.635l-1.684-1.613l0.182-0.568l-0.727-1.584
		l-1.686,0.031l-2.512,1.74l-0.674-0.314l-0.727,0.189l0.389,0.729l1.088,0.348l0.674,0.697l1.244-0.412l-0.727,1.172l0.184,0.379
		l1.295,0.318l-0.725,0.537l0.129,0.35l0.646,0.221l1.166-0.41l-0.025,0.633l1.633,0.283l-0.207,0.475l-0.648,0.096l0.803,0.381
		l1.865,0.125l0.129-0.506L260.096,493.3z M254.939,448.126l-1.477,0.094l-0.932-0.828l-1.736,0.67l-0.674,1.178l0.934,0.73
		l-0.469,0.445l1.762,0.094l0.467,0.477l0.906-1.904l1.555-0.385L254.939,448.126z M162.301,506.741l0.597-0.443l2.124,0.127
		l-0.701,0.789l-0.595,1.803l1.373,0.82l-0.312-0.506l0.466-0.633l-0.128-0.758l1.063-1.453l1.01-0.441l1.501,0.346l0.415-0.535
		l-0.362-0.441l0.493-0.98l1.788,0.506l0.492,0.729l0.44-0.412l1.089,0.314l0.078-0.82h-0.701l0.233-0.41l-0.388-0.949l-0.804,0.127
		l0.467-0.602l-0.259-0.631l-1.088,0.82l-1.399-1.012l1.762-0.096l0.285-0.979l-0.57-0.57l-0.543,0.283l-0.08-1.391l-3.004,1.391
		l-1.192-0.156l-2.201,2.561l0.337,1.361l-0.778,0.377l-0.881,1.297L162.301,506.741z M228.645,495.419l-0.104-0.568l0.803-0.348
		l1.424,0.316l0.391-0.697l0.131,0.697h0.439l1.111-0.822l-1.371-1.963l-2.85-0.223l-0.232-0.57l0.387-0.221l1.193,0.379
		l-0.492-1.141l-1.063-0.189l0.053-0.441l1.373-0.094l0.439-0.697l-0.463-0.918l-1.506-0.16l-0.441,0.287l-1.76,2.596l0.543,0.537
		l0.83-0.158l0.646,0.666l-0.412,0.537l0.646,0.063v0.383l-1.658,1.043l0.803,0.76l0.129,0.791L228.645,495.419z M261.027,498.772
		l-0.598-0.412l0.311-1.012l-1.061,0.57l0.285,0.885l-1.143,2.215l1.477-0.254l0.027,0.316l-1.113,0.252l-0.363,1.076l0.26,0.537
		l0.857-0.475l0.102,0.82l0.699,0.033l-0.283-0.633l0.49-0.158l-0.18-1.328l0.932-2.908L261.027,498.772z M185.488,511.29
		l-0.57,0.348l-0.779-0.57l-1.397,0.223l-1.14,1.359l0.26,2.115l0.543-0.379l0.258,0.947l0.545,0.314l0.389-0.6l2.306-0.885
		l0.208-0.887l1.063-0.219l-0.129-0.916l-0.597,0.063L185.488,511.29z M172.093,514.669l1.088-0.506l-0.388-0.789l0.337-0.156
		l0.777,0.945l-0.259,0.506l1.061-0.029l0.311-1.58l-0.544-0.314v-0.443l0.648-0.348l0.828,0.189l0.104-1.516l-1.66,0.914
		l-0.698-1.451l-1.425,0.41l-0.13-0.664l-0.674,0.852l-0.543-0.504l0.078-0.41l-1.01-0.693l-1.347,1.293l0.128,1.043l-1.215,0.506
		l-0.44,0.031l-1.139-1.453l-1.373,1.264l-1.167-0.41l-0.982,0.285l0.438,0.473l2.253,0.504l1.192,1.393l1.425-1.393l1.84,0.129
		l0.491,0.441l0.129,0.885l0.416,0.094l-0.311,0.822l0.467,0.883l0.829-0.252L172.093,514.669z M193.283,509.743l0.311-0.57h-0.906
		l0.025-0.475l-0.983,0.129l-0.597,0.852l-1.295,0.285l-0.231-0.758l0.361-0.16l-0.389-0.506l0.312-0.535l-0.545-0.064l-0.984-1.391
		l-0.207,0.885l-1.141-0.506l-0.467,0.506l0.623,0.633l-0.18,0.314l-0.365-0.473l-0.336,0.221l0.414,0.348l-0.414,0.789
		l-2.099-0.314l2.099,1.232l0.701-0.729l1.319,0.854l0.337,0.789l-1.399,0.314l0.802,0.158l0.338,0.506l0.441,0.031l0.361-0.947
		l1.217-0.031l0.129,0.727l-1.555,1.105l0.416,1.83l0.93-1.861l0.494,0.158l0.207-1.074l1.994-0.506l-1.682-0.283l0.543-0.885
		l0.569,0.441l1.297,0.127l0.181,0.6l0.75,0.252l0.468-0.283l-0.649-0.631L193.283,509.743z M179.295,505.413l-0.957-0.475
		l-0.829,0.41l-0.596-1.326l-0.649,0.6l-0.466-0.695l0.13,0.822l-0.285,0.096l-0.984-1.266l-0.053,0.537l-0.7,0.254l-0.362-0.316
		l0.311-0.568l-0.856-0.41l-0.311,0.631l0.751,0.633l0.181,0.727l-0.776,2.371l0.672,0.568l1.321-0.6l0.313,1.611l0.957,0.094
		l0.805,0.602l0.205-0.664l0.778,0.379l0.62-0.504l0.39-1.17l0.881,0.504l0.908-0.156l0.206-0.791l-0.855-1.168l0.285-1.201
		l0.727-0.916l-0.544-1.107L179.295,505.413z M209.684,521.265l-1.424,0.316l-0.027,1.166l-0.906,0.096l-0.699,2.775l0.363-0.283
		l0.906,0.029l0.182-0.406l0.361,0.471l1.297,0.381l-0.053-0.885l-0.752-0.316l1.09-0.281l-0.285-1.105L209.684,521.265z
		 M207.507,495.704l-0.286-1.107l-1.529-1.109l-1.371,0.857l-0.391-0.033l-0.05-0.475l-1.554,0.223l-1.556,1.266l-1.347-0.125
		l-0.545,0.885l-0.568-0.031l0.025-0.695l-0.777,0.094l-0.414-1.424l-0.467,0.443l-0.311-0.379l-0.155,1.611l-0.673,0.129
		l-0.416,0.727l-0.542-0.602l-0.339,0.412l1.244,1.738l-0.647,0.508l0.259,0.441l-0.259,0.443l0.854,0.094l0.027-0.602l0.725-0.125
		l-0.078,1.074l0.804,0.223l0.052,0.695l1.113,0.221l0.519,0.98l0.051-0.822l0.52-0.41l1.452,0.283l-0.156-0.537l0.361-0.221
		l1.968,0.568l2.021,0.063l0.829-0.82l0.439-2.119L207.507,495.704z M189.76,497.476l-0.957,0.537l-1.089,0.033l0.208,0.506
		l0.881,0.158l0.336,3.191l0.805,0.791l0.595-0.314l-0.259-1.266l0.467-0.223l0.569,0.477l-0.233,0.82l0.363,1.961l1.009-1.676
		l-0.622-0.506l0.805-0.254l-0.025-0.693l-0.906-2.531l-0.959-0.822l0.181,0.441l-0.57,0.316L189.76,497.476z" />
		<path id="Gyeongsangnam-do" class="land Gyeongsangnam-do" d="M639.35,174.859l0.053,0.263l0.182,0.131l-0.182,0.034l-0.025,0.131l-0.311-0.065l-0.078-0.36l0.154-0.1
		l0.104,0.1L639.35,174.859L639.35,174.859z M639.816,175.121l0.184,0.295l-0.338,0.228l-0.158-0.195L639.816,175.121
		L639.816,175.121z M639.219,174.433l0.08,0.163l-0.156,0.165l-0.025-0.262L639.219,174.433L639.219,174.433z M550.236,139.584
		l0.928,0.28l-0.725,0.38l-0.314,1.082l0.947,1.76l-0.725,2.601l0.928,0.68l-0.977,0.359l-0.836,0.96l-0.455-0.181l-1.215,0.72
		l-0.742,1.899l-0.566-0.561l-1.764-0.58l-0.865,0.181l-1.451-1.136l-1.576-0.359l-0.645-1.061l0.236-2.439l-1.023-1.199
		l0.029-1.081l0.742,0.48l4.002-2.081l1.385,0.08l1.418-0.94l1.609,0.24l0.756-0.861l0.725,0.04L550.236,139.584z M329.943,361.825
		L329.943,361.825l0.682,1.273l-0.461,3.045l0,0l0.777,2.369l0.885,1.291l2.09,1.688l0,0l0.93,1.08l1.365,0.699l0,0l5.803-1.104l0,0
		l3.395,0.771l3.947,1.971l0,0l1.895,0.57l1.547-0.559l3.895-3.268l1,0.299l0,0l1.121-0.438l1.781-2.291l0,0l1.994-1.412l0,0
		l2.078,0.041l0,0l1.32,0.104l1.568,0.768l0,0l1.27,0.705l0,0l2.387,0.863l0,0l0.947-0.354l0,0l0.76-0.789l3.869-3.082l1.637-0.174
		l0,0l0.662,0.129l0.65-0.861l-1.336-2.475l-0.221-1.061l0.586-0.494l4.1-2.572l3.072-1.02l1.604,0.299l2.557-0.654l1.078,0.422
		l1.777,1.467l1.986,0.311l0.957,0.584l0.234,0.826l0,0l-0.418,2.836l0,0l0.283,0.771l0.721,0.334l0,0l1.949,0.648l0,0l1.408-0.24
		l2.785-1.84l1.1-0.307l0,0l1.469-0.012l0,0l4.822,1.73l0,0l1.738,0.422l0,0l2.973,0.221l-0.805-0.256v-0.547l-0.621-0.576
		l-0.234-2.311l0.754-0.385l0.49-1.992l1.039-0.098v-1.604l0.518,0.063l0.621-1.348l-0.443-1.83l1.221-2.797l-0.129-1.479
		l0.957-0.996l-0.338-0.805l0.26-1.254l0.363-0.191l-0.623-1.896l0.959-0.771l-0.262-0.58l0.883-0.898l0.338,0.191l0.232-1.352
		l-0.518-0.771l1.115-1.514l-0.182-1.352l0.674-0.547l0.051-1.092l0.777-1l-1.58-0.322l0.205-0.805l0.881-0.26l-0.438-1.316
		l0.854-0.742l-1.449-2.349l-0.053-0.871l1.422-0.773l0.676-1.676l0.801-0.193l-0.18-0.516l0.777-1.449l-0.363-1.193l1.375-1.225
		l-0.025-0.871l1.684-2.258l-0.674-0.935l0.494-0.419l0.049-0.421l-0.543-0.354l0.389-0.161l0.232-1.128l-1.295-2.583l0.102-1.162
		l-0.955-0.291l-0.211-0.773l-1.215,0.291l-0.027,0.936l-0.881,1.355l-3.029,3.322l-0.053,1.323l-4.117,2.484l-0.232,1.225
		l-0.807,0.258l-2.51-1l-0.418-0.771l0.703-0.84l-0.545-0.516l-2.307,0.613l0.182-0.744l0.727-0.354l0.438-0.809l1.373,0.323
		l0.883-0.098l-0.023-0.419l-2.566-0.937l-1.658,1.162l-0.984-1.646l0.646-2.323h1.297l0.49-0.774l1.633-0.582l-0.182-1.45
		l1.193-1.065l0.102-0.581l0.078-0.969l-2.979-2.487l-0.467-1.131l0.621-1.681l-0.023-1.229l-0.598-1.971l-0.182-0.389l-1.191-0.227
		l-0.83-1.584l0.209-0.711l0.828-0.228l0.336-1.293l-0.441-1.294l0.441-1.003l-1.217-1.455l0.285-1.94l0.518-0.55l-0.676-1.587
		l0.441-0.259l0.285-3.659l-0.258-1.229l0.881-1.846l-0.08-0.973l1.66-2.884l0.207-1.037h0.465l1.633-2.397l0.57-1.913l-0.285-1.687
		l0.414-2.757l-0.363-1.85l1.063-0.975l0.105-1.785l0.596-0.227l-0.467-0.778h-0.391l-0.283-4.61l-2.098-2.403l-0.572-1.234
		l-0.182-1.786l0.598-0.293l-0.389-2.503l0.467-1.854l1.061-1.203l0.828-2.601l1.168-0.978l1.295,0.065l0.391-1.757l0.855-0.652
		l-0.545-2.57l0.545-0.521l-0.029-0.911l-0.801-1.531l-0.104-1.302l1.035-1.107l-1.424-2.378l-0.57-3.226l-0.881-1.043l-0.102-1.01
		l-1.66-1.858l-0.83-2.414l0.232-0.62l-0.621-1.271l-0.074-0.75l0.543-0.555l-0.516-1.337l0.541-4.244l-1.164-3.95l1.035-1.861
		l-0.053-1.405l-0.908-2.776l0.676-0.523l-0.389-1.275l0.207-1.241l0.623-0.426l0.545,0.359l0.412-0.294l-0.598-1.046l-2.822-2.093
		l-0.104-0.622l-1.656-1.473l-0.184-1.177l0.547-0.834l0,0l-4.223,0.714l0,0l-1.846,2.181l-2.461,0.934l-2.771,2.491l0,0
		l-1.541,2.18v1.246l0,0l1.541,2.802l-6.447,0.161l0,0l-2.621-2.267l-2.912-1.029l-2.578-0.397l-2.512,2.511l-0.996-0.192
		l-3.031-1.745l-3.301-0.673l-1.152-0.027l-2.15,0.742l-0.672-1.319l-1.697-0.683l0,0l-0.918,0.594l-1.953,3.703l0,0l-0.922,1.245
		h-4.004l-3.385-2.802l-2.773-1.557l-1.99,0.184l-0.641,2.311l0.105,2.396l-0.359,0.753l-0.742,0.363l-1.438-0.952l-1.586-0.418
		l-1.893,0.255l-3.041-2.091l-1.154-0.24l0,0l-1.258,1.28l0,0l-0.916,0.874l-0.461-0.229l0,0l-0.916-0.326l0,0l-0.738,0.311l0,0
		l-1.428,2.136l-0.82,0.471l0,0l-0.609,0.28l0,0l-3.246,3.244l-2.764,0.807l0,0l-0.777,1.24l0,0l-0.457,0.997l-3.039,1.744
		l-0.09,0.88l-1.465,1.469l-1.559,3.309l0,0l-0.824,1.562l0,0l-0.051,1.331l1.295,0.609l0,0l0.527,0.813l0,0l0.258,2.095
		l-2.807,3.89l0,0l-1.412,0.297l0,0l-2.08,0.152l0,0l-0.447,0.33l0,0l-0.914,1.027l-2.408-0.052l0,0l-1.625,0.435l-0.539-0.254l0,0
		l-1.021-2.793l-1.439-2.121l-3.193-1.843l-1.166-1.968l0,0l-1.069,1.272l-0.271,1.018l0,0l-0.307,0.75l-1.115,0.344l-0.24,2.583
		l0,0l-0.199,0.644l0,0l-0.363,0.564l-5.133-1.294l-0.492-0.44l0,0l-0.414-0.629l0,0l-1.053-0.376l-0.602,0.625l0,0l-1.365,1.146
		l0,0l-1.135,1.938l0,0l-1.361,0.189l0,0l-1.615-1.745l-0.5,0.305l-2.674,6.328l0,0l-0.154,0.348l0,0l3.197,4.441l0.152,0.792
		l-1.174,0.105l-3.367-1.014l0,0l-1.164-0.664l-1.193,0.584l0,0l-2.16-1.014l0,0l-1.109-0.613l0,0l-1.152,2.334l-1.682,1.391
		l-1.584,1.042l-1.977,0.125l0,0l-0.637,0.253l0,0l-1.66,2.37l0.477,2.219l0,0l-0.441,0.697l0,0l-2.178,1.903l0,0l-0.57,0.729l0,0
		l-0.932,1.505l-0.803,0.045l0,0l-1.543,0.352l0,0l-0.807,1l-0.17,0.902l0.721,1.097l5.293,1.13l1.201,1.218l-0.143,0.929l0,0
		l0.383,1.556l0.57,0.409l0,0l1.619,0.68l0.361,0.682l-0.416,1.701l0,0l-0.123,0.56l0,0l-1.865,0.332l0,0l-0.426,1.333l0,0
		l0.291,3.591l-0.664,2.686l0.586,1.178v1.293l-1.266,2.012l1.299,3.247l0,0l0.488,0.307l0,0l-0.986,2.558l-2.625,2.304l0,0
		l-0.068,4.276l0.363,0.783l1.762,0.991l0,0l1.82-1.07l1.146-1.502l0.4,0.018l0.459,1.441l2.207,0.795l0.256,0.682l0,0l0.092,0.499
		l0,0l0.971,0.321l0,0l0.764,0.748l0,0l0.332,0.493l0.826-0.098l0,0l1.963-0.836l0,0l2.201-0.786l1.992,0.694l0,0l0.611,1.067l0,0
		l-0.35,1.063l0.5,2.1l0,0l0.563,1.305l0.682,0.564l0,0l-0.09,0.794l-1.137,0.552l-2.441-1.477l-2.373,1.424l-1.168,1.737
		l0.082,1.187l1.08,1.768l-0.504,1.406l0.1,2.158l-1.734,1.46l0.182,0.918l-0.98,1.679l-0.225,2.033l-1.814,2.593l-0.744,0.33
		l-0.869-0.665l-1.223,0.237l-1.072,1.07l0,0l3.439,5.652l1.215,3.303l-0.27,2.761l-0.998,2.24l0,0l0.125,1.934l0.564,0.865
		l1.125,0.895l1.539-0.012l0,0l0.699,0.363l0,0l0.307,2.604l0.932,0.563l0,0l2.113,0.328l0,0l1.754,0.215l0.576,1.127l1.135,0.633
		l0,0l4.383,0.783l0,0l2.52-0.266l0,0l1.473,0.75l0,0l1.52,0.746l0.486,0.738l0.77,2.869l0,0l0.65,0.492l0,0l2.039,0.988
		l0.652,1.146l-0.229,0.609l2.486,1.49l0.93,1.787l-0.242,2.205l-1.791,3.965l0,0l-0.264,1.656l0.873,1.631l0,0l3.75,1.488
		l2.214-0.305l0,0l1.178-0.311l0,0l2.916-1.086l2.166,1.082l2.266,0.271l0,0l2.207,2.178l0,0l1.689,1.242l0,0l-0.725-3.42l-4-4.982
		l0.309-2.803l1.844,0.623l1.541,1.246h2.154l0.617-2.49l-3.08-3.426l1.232-3.113l1.232-2.803l5.232-0.934l-0.309-1.869l-2.77-2.18
		l-4.617-0.313l0.307-3.113l1.232-2.803l2.156-3.113l2.152-0.623l1.85-1.246l0.615,5.605h2.465l0.924-3.113l2.461-4.981l5.848-1.244
		l2.771-3.116l3.387-0.934l3.076,0.311l3.697,3.116v4.356l0.615,3.113l1.846,4.049l-0.924,2.18l-3.385,1.246l-1.541,3.424v3.113
		l-2.465,0.313v1.869l1.232,1.557v4.049l-3.385,1.246l-1.541,1.867l-2.77-0.313l-0.619-2.801h-3.074l-2.156,1.244l-1.541,2.49
		l0.447,1.504l0,0l0.297-0.217L329.943,361.825z" />
		<path id="Gyeongsangbuk-do" class="land Gyeongsangbuk-do" d="M271.52,336.368l1.123,0.895l1.541-0.012l0,0l0.699,0.363l0,0l0.307,2.604l0.932,0.563l0,0l2.113,0.328l0,0
		l1.754,0.215l0.576,1.127l1.135,0.633l0,0l4.383,0.783l0,0l2.52-0.266l0,0l1.471,0.75l0,0l1.52,0.746l0.488,0.738l0.768,2.869l0,0
		l0.652,0.494l0,0l2.037,0.986l0.654,1.146l-0.229,0.611l2.486,1.49l0.93,1.787l-0.242,2.203l-1.793,3.965l0,0l-0.262,1.656
		l0.873,1.631l0,0l3.75,1.488l2.214-0.305l0,0l1.178-0.311l0,0l2.916-1.086l2.166,1.084l2.266,0.27l0,0l2.207,2.178l0,0l1.645,1.232
		l2.426-0.049l3.443-2.492l0,0l1.502-0.375l0,0l2.391,0.893l1.063-0.594l0.795-3.582l0.77-1.002l0.297-0.217l0.961,0.014l0,0
		l0.682,1.275l-0.461,3.045l0,0l0.777,2.369l0.885,1.289l2.09,1.688l0,0l0.93,1.082l1.365,0.699l0,0l5.803-1.104l0,0l3.395,0.77
		l3.947,1.971l0,0l1.895,0.572l1.545-0.561l3.895-3.264l1,0.297l0,0l1.123-0.439l1.781-2.289l0,0l1.994-1.414l0,0l2.076,0.043l0,0
		l1.32,0.104l1.57,0.768l0,0l1.268,0.703l0,0l2.387,0.865l0,0l0.949-0.354l0,0l0.758-0.789l0,0l1.449,2.422v1.465l-1.184,1.047l0,0
		l-2.199,1.885l0.336,4.814l2.201,1.047h2.709l0,0l2.369,0.209l3.215,3.348l0,0l3.385,3.975l2.201,1.881l0,0l3.047,0.209l0,0
		l1.25,1.543l0,0l-2.91,2.707l-0.566,1.855l-4.801,0.572l-1.695,2.57l-0.846,2.715l-1.018,1.338l-1.811-0.316l-3.898,2.477
		l-0.967,1.162l-0.781,0.197l-0.846,2l-1.414,1.572l-4.098,0.143l-3.813,2.428l-2.26,0.287l-0.424,4.998l-4.236,1.145l-2.4,1
		l-0.199,0.465l0,0l-1.785,2.223l-0.961-0.732l0.154,1.244l-1.191,0.096l-1.035-0.764l-0.646,1.049h-0.467l-0.363-0.732
		l-0.855,0.191l-0.051-0.924l-1.219-0.031l0.105,0.51l-0.699,0.318l-0.703-0.732l-0.207-0.479l0.883-0.414l0.803-1.309l-0.645-0.766
		l0.049-1.053l-0.854-0.287l0.209-0.988l-1.66,0.797l0.518,1.756l-1.166,0.957l-0.336-1.533l-1.76-0.732l-0.156-0.764l0.438-0.576
		l-1.811,0.32l-0.416,1.723l-0.621-0.83l-0.828,0.256l0.75-1.086l-0.646-1.02l0.184-0.861l-0.547,0.225l-0.959-1.309l-0.205-3.225
		l1.604-1.215l1.428-0.158l0.855-0.988l-1.219,0.732l-2.926,0.607l-2.178,2.584l0.465,1.246l0.906,0.35l-0.617,0.605l0.334,0.703
		l0.57-0.32l0.547,0.449l0.928,2.104l-0.332,0.541l-1.012,0.287l-0.803-0.287l-0.129,0.703l1.01,0.352l0.803-0.512l0.672,0.096
		l-0.309,0.928l0.363,2.455l2.406,1.943l0.025,0.285l-2.254,0.352l0.777,0.957l1.35-0.318l0.826,0.318l0.027,0.381l-2.773,1.148
		l-3.08,0.605l0.543-0.893l0.855-0.256l0.336-1.053l-0.336-0.063l-0.416,0.893l-0.311-0.414l-1.631,0.225l0.568,1.367l-0.463,0.32
		l-0.727-0.16l-1.27-1.814l2.203-0.158l-0.311-1.213l0.959-0.67l0.881-0.063v-0.385l-3.732-1.145l0.598-0.734l-0.363-0.35
		l-0.492,0.318l-0.08-1.436l-1.008,1.816l-0.518-0.158l-1.012,0.795l-0.621,0.033l-0.854-0.926l-1.01-0.285l0.102,0.828
		l-1.008,0.414l-1.402-0.828l-0.854-0.064l-0.205,1.053l2.926,1.721v0.385l-0.416,0.352l-0.645-0.736l-0.414,0.959l-2.074,0.191
		l-1.297,1.941h-1.139l0.051-0.828l-0.391-0.064l-1.086,0.99l-1.527,0.381l-0.076,0.543l-0.752-0.414l0.701,1.594l-0.832,0.668
		l-0.385-0.189l0.127,0.891l-1.113,0.859l0.025,0.668l0.828-0.73l1.867-0.352l0.105-1.752l1.477-0.893l4.014-1.02l-0.57-0.986
		l0.389-1.021l0.777-0.191l0.391,0.828l0.881-0.508l0.074-0.926l1.244,1.307l-0.438,0.861l0.387,0.35l-0.26,0.893l-1.32-0.35
		l-0.441,0.285l0.701,0.51l1.293,0.16l0.391,0.574l-0.414,0.826l1.838,0.893l0.105,0.605l-0.906,1.242l-0.363-0.637l-0.465,0.096
		l0.127,1.178l-0.697,0.096l-0.027,0.668l-1.27-0.508l0.338,0.891l-0.391,0.127l-2.148-0.73l-2.979-0.064l0.027,1.436l0.854-0.512
		l1.063,0.096l1.191,0.383l0.232,1.051l-0.984,1.4l-0.932,0.541l0.568,0.254l0.08,1.084l-0.494,0.604l0.984,0.891l-0.646,0.447
		l0.076,1.305l-1.088,0.762l0.779,0.764l-0.596,0.766l0.389,1.525l-0.209,1.238l0.906-0.668l0.26-0.508l-0.338-0.129l0.078-0.508
		l1.424-1.432l-0.127-0.699l-0.621-0.443l0.154-0.318l1.219-0.096l0.648,1.111l-0.08,0.572h0.443l0.078,0.828l0.801-0.098
		l0.154,0.352l-0.75,2.287l-0.674-0.221l-0.365-1.113l-0.311,0.922l0.311,1.02l-0.854-0.129l0.621,0.859l-0.127,1.398l-1.66,1.016
		l-0.803-0.285l-1.424,0.635l2.721,0.637l0.232,0.922l-0.258,0.572l0.23,1.492l-0.881-0.285l-0.104,0.443l0.805,0.857l-0.572,0.539
		l-1.293-0.254l1.502,1.209l-1.012,1.332l-0.127,0.891l-1.66-0.096l-0.232-0.637l-0.568,0.35l-0.08-1.684l-0.207-0.189l-0.594,0.57
		l-0.209-0.537l0.492-0.637l-0.828-1.209l-0.621,0.955l-0.184-0.604l-0.93-0.16l0.777-0.889l0.699-0.064l-0.363-0.539l0.311-0.73
		l-2.951-1.207l-1.039,0.951l-0.568-1.047v-0.443l0.338,0.35l0.568-0.318l-0.232-1.43l0.49,0.094l0.158,1.02l0.49-0.287l-0.152-0.73
		l0.596-0.158l0.463,0.35l-0.129,0.572l0.727,0.508l0.623-0.539l1.219,2.51l-0.184-1.748l0.984,0.318l0.932-0.764l-0.465-0.285
		l-0.619,0.604l-0.238-0.637l-0.541,0.063l0.414-0.857l-1.297,0.096l0.311-0.477l-0.674-0.668l0.752-0.096l0.959-1.271l2.227,0.477
		l0.648-0.35l-0.338-0.605h-2.773l-0.49-0.666l0.311-1.018l-0.363-0.668l-0.285,0.699l-0.775-0.414l0.621,1.463l-0.338,0.414
		l-1.555-0.318l-0.467-1.686l-0.207,1.559l-0.646-0.191v-0.824l-0.752-0.098l0.363,0.605l-0.881,0.189l-0.025-1.24l-1.063,0.795
		l-0.621-1.463l-1.139-0.857v-0.383l1.371-0.699h2.463l0.775,0.477l0.775-0.35l-0.309-0.508l0.285-0.668l-0.672-0.064l-0.156-0.254
		l0.361-0.16l-0.594-0.57l0.18-0.859l-0.465-1.527l-0.465,0.445l-0.547-0.256l0.209-1.08l-0.336,0.158l-0.961-0.797l0.182,1.178
		l-0.336,0.127l0.438,0.701l-0.412,0.064l-0.182,0.604l-1.4,0.223l0.467,2.068l-1.398,1.02l-0.699-0.732l0.025,1.398l-0.57-0.029
		l-0.025-0.67l-0.932-0.225l0.234-0.666l-0.621-0.51l0.721-1.367l-0.311-0.668l-0.619-0.096l-0.361,0.445l-0.648-0.604l-0.285,0.699
		l-0.023-0.859l-0.572-0.189l-1.038,0.508l-0.572-0.604l-0.41,0.826l-0.52-0.412l-0.182,0.443l-0.311-0.285l-0.986,0.443
		l0.779,1.273l-0.492,1.24l0.309,2.449l-1.863-0.158l-0.648-1.4l-0.205,1.209h-0.727l-0.674-1.209l-1.58,0.572l-0.855,1.561
		l-0.982-1.848l-1.037,0.256l-0.727-1.018l0.596-0.891l0.65-0.16l0.18,0.541l0.234-0.795l-4.094-0.445l-0.102,0.381l-2.047-0.699
		l-1.348-1.24l-0.025-0.699l-0.908-1.338l1.789-1.369l0.363-0.953l-0.752-0.383l-0.572-1.689l1.012-2.322l-0.416-0.797l-0.723,0.639
		l-0.158-0.512l0.598-1.02l-0.26-1.211l0.934-3.217l1.139-0.988l-0.623-0.32l-1.994,1.529l0.207,0.607l-0.906,0.859l0.389,1.051
		l-0.311,1.529l-0.543,0.605l-1.061-0.256l-0.338-0.477l1.166-0.639l-0.232-0.701l-0.025,0.447l-0.699,0.414l-0.313-0.605
		l-1.709-0.318l-0.492,1.242l-0.389,0.096l-0.027,0.285h0.855l0.232-0.795l0.83,0.158l-0.156,0.67l1.271,1.051l-0.131,1.084
		l1.113,0.254l-0.387,2.229l-0.699-0.414l0.051,1.527l-0.441-0.189l0.184-0.508l-0.701-0.895l-0.439,0.16l0.127,1.146l-0.412-0.572
		l-0.416,0.189l0.545,0.732l-0.855,0.445l-1.113-2.166l-0.777,0.191l-0.467,1.18l-0.439-0.225l-0.467,0.318l0.49,0.859l-1.475-0.541
		l0.363-0.826l-0.598,0.221l-0.26-0.637l0.313-0.51l0.439,0.287l0.076-1.242l-0.697-0.189l-0.83-1.242l-0.467,0.699l0.285,0.732
		l-0.623,1.4l0.209,0.986h-0.906l0.387,1.242l-0.982,0.127l-0.494,0.986l0.182,0.352l-0.725,0.572h-0.725l-0.361,0.764l-1.426,0.191
		l-0.441-0.447l-1.035,0.447l-0.236-1.527l-0.412-0.254l-0.156,0.635l-0.545-0.859l-0.412,2.102l-0.494,0.318l-0.465-0.73
		l-0.742,0.158l-0.088-0.451l-0.686-0.322l0.035-2.928l-1.555-4.104l0,0l-1.721-1.326l0,0l-1.164-1.867l-1.596-0.688l-0.756-1.236
		l0,0l-1.076-1.043l0,0l-0.193-2.896l-3.002-3.631l-2.193-1.127l-1.281-1.688l-0.895-9.197l-2.625-2.982l0.018-1.559l0.771-0.695
		l0,0l0.229-0.205l0,0l2.186-2.299l-0.543-2.863l0.334-1.156l0.807-1.982l3.654-3.561l0.547-3.455l0,0l-0.098-0.545l0,0
		l-1.609-0.426l0,0l-0.684-1.924l0,0l0.678-3.334l0,0l-1.252-2.268l0,0l-0.496-1.047l0.078-1.854l0,0l-0.686-0.701l-2.049-0.668l0,0
		l-0.17-2.311l0,0l1.568-3.273l0,0l0.773-4.727l0,0l1.881-4.934l0.93-1.447l0,0l0.881-0.795l0.152-1.914l0,0l0.771-4.811l1.65-1.143
		l3.223-3.584l0.797-2.281l0,0l0.66-1.205l0,0l0.18-0.582l0,0l0.205-0.637l0.436,0.164l0,0l0.701,0.494l0,0l1.291-0.057l0,0
		l1.799-1.145l0,0l1.443-0.01l1.758-1.645l1.305-0.236l0.531-1.934l1.488-2.68l2.295-1.512l0.125,1.936L271.52,336.368z
		 M356.307,428.134l0.391,0.063l0.104,1.369l1.008-0.285l0.469,1.752l-1.607,3.408l0.648,0.795l-0.57,1.434l-0.727,0.414l0.26-0.604
		h-0.75v-0.766l-0.338-0.191l0.131-0.795l0.674-0.414l-2.021-0.893l-0.078-0.383l0.646,0.063l0.363-0.477l-0.75-0.605l0.439-0.191
		l-0.055-0.67l-0.516-0.701l-0.752-0.125l-0.129-0.703l0.854-0.283l0.027-0.385l1.553-0.094l0.129-0.67L356.307,428.134z
		 M342.188,431.128l0.727,0.287l0.439,0.859l0.752-0.096l-0.053-0.543l0.518,0.51h0.775l0.883,1.467l-0.855,1.656l-0.543-0.445
		l-0.49,0.35l-0.104,0.383l0.516,0.189l0.078,0.479l-1.344,0.064l0.18,0.604l0.596-0.096l-0.516,1.146l0.127,1.082h0.646
		l0.393,0.893l0.879,0.031l-0.18,0.826l0.361,0.766l0.646,0.189l0.131,1.146l-0.416,0.223l-0.438-0.316l0.023,2.162l0.52,0.766
		l-0.365,0.508l-0.879-0.287l0.621,1.305l-0.959,0.158l-0.338,0.701l-0.674,0.287l-0.051,1.047l1.424,0.287l-0.441,0.637
		l0.338,0.254l0.754-1.463l1.086-0.762l0.961,0.57l1.164-1.049l-0.854,1.207l0.154,0.479l-0.57,0.096l0.443,1.24l-0.648,0.697
		l-0.934-0.539l-0.26,0.254l1.139,2.385l-1.111,0.285l-0.57-0.984l-1.582,1.049l0.027,0.891l0.621,0.541l0.854-1.02l0.727,0.541
		l0.102,0.572l-0.699,0.508l1.971,3.367l0.025,0.764l-0.494,0.096l-0.492-0.764l-1.867-0.189l-0.025-0.414l0.572-0.381l-0.752-1.365
		l-0.959,0.635l0.105,1.207l-0.287,0.064l-0.676-0.191l0.34-0.482l-0.131-0.756l-2.047-0.445l-0.232,2.289l0.701,0.855l-1.424,1.271
		l-1.166-0.445l-0.727,1.777l1.371,2.383l1.945-0.254l0.723,0.445l0.131,0.41l-0.621,0.129l0.025,0.855l-0.516-0.826l-1.4-0.508
		l-0.387,0.635l-1.17-0.188l-0.906,0.57l-0.182-0.699l-0.465,0.762l0.828,1.207l0.803,0.221l0.234,0.541l-0.391,0.381l-0.623,0.031
		l-0.568-0.508l-1.477,1.459l-1.787-0.92l-1.27,0.762l-0.156-0.541l0.492-0.98l0.727-0.096l-0.285-0.668l1.732-0.477l0.313-0.506
		l-0.57-0.699l-1.348,0.063l-0.883-0.477l0.027-1.268l0.441-0.51l-0.258-0.668l2.02-0.156l-0.051-0.445l-0.803-0.316l0.49-0.857
		l-1.398,0.287l-0.699-0.352l-1.219,1.398l-0.75-0.191l-0.078-0.891l1.398-1.396l-0.982-0.158l-1.377,1.557l0.234-1.047
		l-0.646-0.383l0.955-0.158l0.236-0.539l1.969,0.031l1.164-0.51l0.025-2.287l1.037-0.857l-0.076-0.762l-0.701,0.189l-0.18-0.855
		l-0.65-0.191l-0.156-0.479l1.039,0.316l0.025-0.697l-1.424-0.824l-0.961,1.334l0.154,1.143l-2.305-0.285l-0.207,0.699l-0.75-0.445
		l-0.467,0.635l0.363,0.73l-0.752-0.252l0.363,0.92l-0.648,0.764l-0.598-0.031l-0.125-0.984l-0.805-0.699l0.672-0.857l-1.193-0.158
		l-1.242-0.922l-0.361-0.891l0.26-0.35l-0.623-0.383l0.363-0.352l-0.52-1.746l0.416-1.271l0.75-0.541l0.699-1.336l0.803-0.063
		l-0.387-0.699l0.803,0.35l-0.465-0.795l0.596,0.414l0.828-0.223l-0.027-0.637l0.936-0.924l0.908,0.191l0.953,0.857l0.029,0.541
		l1.918,1.209l0.906-0.158l0.049-0.414l-0.594-0.51l1.426-0.764l0.516,0.828l0.525-0.26l0.207,0.67l0.779-0.383l0.672,1.432
		l0.984,0.316l0.053-0.73l-0.883-1.461l0.258-0.637l-0.984,0.285l0.262-1.051l-0.701-0.096l-0.775-1.877l-0.906-0.287l0.336-1.047
		l0.412,0.412l0.518-0.572l-0.127-1.369l0.723-0.51l0.469,0.287l-0.496,1.082l1.117-0.639l1.451,0.287l-0.027-0.635l0.881,0.891
		l0.723,0.158l0.287-0.318l-0.545-0.223l0.105-1.113l0.49-0.893l0.568-0.223l-0.49-0.064l-0.051-0.668l1.037-0.254l-0.496-0.797
		l0.729,0.352l0.338-0.479l0.387,0.986l0.596,0.031l-0.723-1.305l0.828-0.16l-0.105-0.572l-0.412,0.414l-0.881-0.287l0.387-1.656
		l0.391-0.063l-0.025-1.273l0.881-0.129l-0.855-0.57L342.188,431.128z M339.42,433.294l0.465,1.242l-0.648,1.24l-0.053,0.414
		l0.57,0.16l-0.623,0.063l-0.051,1.721l-1.709,0.383l0.285-0.416l-0.779-0.285l-0.389,0.893l-0.75,0.189l0.205-1.4l0.443-0.223
		l0.18,0.316l0.727-0.922l-0.078-0.287l-0.908,0.031l0.105-0.51l1.551-0.031l-0.23-1.113l0.621-0.766l0.516,0.383L339.42,433.294z
		 M268.928,441.921l0.543,0.543l0.881-0.031l0.078,0.443l0.467-0.35l0.207,0.666l0.182-0.795l0.621,0.287l-0.389,0.639l0.699,2.129
		l-0.465,1.561l0.154,1.24l-0.57-0.031l-0.934,0.953l-0.697-0.096l-0.336,1.492l0.982,2.227l0.621,0.445l-0.57,0.922l1.451,1.049
		l0.701-0.285l0.984,0.668l0.154,2.127l0.908,0.445l0.775-0.189l0.336-0.318l-0.672-0.541l1.787-0.697l-0.102-0.668l1.217-0.699
		l2.643,0.191l0.051-0.318l0.982-0.158l0.391,0.826l1.063,0.572l0.232-0.383l1.166,0.477l0.545,0.955l-0.469,0.92l0.389,0.445
		l-0.439,0.314l-0.727-0.252l-0.129,0.635l0.596,0.318l-0.752,1.207l0.855,3.523l-0.258,0.697l-0.646,0.189l-1.219,1.303
		l-0.18,0.826l2.459,1.775l-0.646-0.316l-0.023,0.443l-0.598,0.064l-0.391,0.633l-0.725-0.127l0.129-0.477l-0.854-0.029
		l-0.232,0.791l-0.494-0.158l0.646-1.936l-0.932-0.604l-0.775,0.285l0.309,0.699l-0.23,0.381h-0.469l-0.258-0.508l-0.777,0.316
		l-0.336-0.824l-0.467,0.285l0.387,0.697l-0.387,0.443l-1.09-0.316l-1.451,0.254l-0.389-0.855l0.467-0.191l-0.051-0.477
		l-0.648-0.221l-0.598-2.539l0.389-2.098l0.65-0.889l-0.416-0.539l-2.072,0.189l-2.227,1.145l0.697,3.684l-0.492,0.729l-1.605,0.604
		l-2.953-0.637l0.414-0.729l-1.061-0.412l0.516-0.539l-0.336-0.666l-1.477-0.096l-0.154-0.857l0.57-0.127l0.205-0.604l-0.258-0.539
		l1.061-0.254l-0.596-2l-0.723-0.256l-0.363-0.699l0.23-1.43l-0.826-0.316l0.053-0.73l-1.373-1.842l-0.572-2.83l0.961-0.891
		l-0.207-0.73l0.285-0.348l0.959-0.064l-0.184-0.891l0.596-0.922l-0.336-0.318l0.984-0.543l0.182-0.855l0.389,0.604l1.633-0.223
		l-0.957-1.271v-0.859h0.516l-0.416-0.699l1.064-0.381l-0.08-0.572l0.494-0.668L268.928,441.921z M281.699,444.688l0.232,0.701
		l-0.699,1.686l-0.879,0.826l-0.547,3.148l1.271,0.285l-0.129-2.066l1.295-1.75l0.984,0.129l0.209,1.592l0.596-0.258l1.061,1.307
		l-0.129,1.396l-0.752,0.254l-0.332,0.795l0.748-0.316l0.26,0.73l-0.391,0.445h1.428l0.025,0.699l0.883,0.254l0.154,0.984h-0.855
		l-0.492-0.857l-0.727,0.604l-0.959-0.953l-0.775,0.318l-2.254-1.525l-0.311,1.207l-1.373,0.318l-1.605-0.063l-1.633-0.826
		l0.258-0.352l-0.75-0.73l-0.232-1.176l0.18-0.953l1.297-0.826l0.102-0.826l1.141-0.924l0.049-1.049l0.676-0.955l1.736-1.049
		l0.568,0.189L281.699,444.688z M297.553,451.813l2.281,0.984l0.75,0.795l-0.258,0.316l-2.203-0.096l-0.57,0.414l-0.465,1.238
		l-0.959,0.381l-0.543-0.762l0.412-0.541l-1.268-0.316l-0.285-1.336L297.553,451.813z M300.973,454.005l1.244,1.971l1.474,0.891
		l-0.545,0.795l-1.992-0.189l0.568,1.143l-0.309,0.73l-0.469-0.762l-1.243,0.029l-0.025-0.793l-1.244,0.063l-0.127-0.381l0.674-0.16
		l-0.184-0.316l-1.344-0.381l0.152-0.795l0.391,0.412l0.803-0.029l-0.648-0.604l0.855-1.24L300.973,454.005z M324.057,456.675
		l0.1,0.318l-0.695,0.381l0.359,0.414l0.104-0.445l0.416,0.031l-0.234,0.541l0.674,0.762l0.105,2.129l1.191-0.254l0.545,0.824
		l-0.313,1.176l-1.865,1.111l-0.648-0.51l-1.32,0.064l0.363-0.254l-0.363-0.635l0.57-0.256l-1.324-1.777l0.313-0.539l-0.076-1.748
		l0.516,0.572l-0.051,1.207l0.75-0.383l-0.154-1.047l1.113,0.635l-0.672-1.016l-0.859,0.252l-0.283-0.729l0.283-0.826H324.057
		L324.057,456.675z M301.752,475.528l1.189,0.951l0.648-0.223l0.984,0.824l-0.236,0.57l-0.748,0.127l0.674,0.316l0.26,0.635
		l0.932-1.648l1.32-0.031l-0.543,0.539l0.285,0.379l-0.803,0.445l0.154,0.92l-1.631-0.098l-0.078-0.475l-0.754-0.285l-0.673,0.887
		l-1.063,0.033l-0.154,0.918l-0.881-0.158l-0.258-0.57l1.061-0.189l0.053-0.506l-0.779-0.572l0.26-0.762l-0.854,0.51l-0.441-0.73
		l1.088-0.379l-0.672-0.984l0.543-0.412L301.752,475.528z" />
		<path id="Jeju" class="land Jeju" d="M181.471,603.3l0.675,0.781l-0.44,0.596l0.777-0.314l0.648,0.221l-0.518,0.531l0.388,1.156l-0.544,1.223
		l-2.047-0.5l-0.439-1.439l0.777-1.971L181.471,603.3z M176.913,618.397l-1.427,0.531l-1.685,1.748l-0.465,2.025l-2.436,2.471
		l0.155,1.436l-1.295,1.469l-2.099,0.469l-2.902-0.564l-3.083,3.246l-2.383,0.154l-3.757,1.063l-0.75-0.406l-1.995,0.313
		l-2.644,2.152l-0.078,0.779l-1.786,0.686l-0.855-0.373l-0.13-0.531l-1.684-0.063l-0.518,1.279l-1.45-0.873l-2.125,0.188
		l-1.58,0.811l-3.653,0.842l-1.087-1.686l-0.725-0.152l-2.307,0.621l-1.32-1.061l-0.518,0.063l-3.264,1.498l-4.172-1.121
		l-3.057,2.025l0.026,2.959l-0.543,0.156l-0.311-0.623l-0.518-0.029l-0.933,0.621l-0.88-0.592l0.232-1.121l-0.828-0.031
		l-2.098-2.869l-2.953-1.275l-1.865-1.563l-1.814-2.994l0.572-3.307l-0.572-1.811l0.416-0.781l1.347-0.688l0.025-1.404l2.72-1.779
		l1.167-1.813l1.192,0.188l2.151-2.5l0.439-2.811l4.146-1.689l0.079-1.688l0.363-0.281l1.916-0.033l1.866-0.529l0.233-0.531
		l1.295,0.063l1.631-1.344l0.467-0.031l0.699,0.781l1.141-0.875l4.092-1.094l1.243-1.002l1.323-0.096l0.336-0.813l0.723-0.406
		l1.997,0.596l1.241-0.221l1.142-0.75l0.958,0.438l1.243-0.688l2.047,0.156l0.778-1.158l3.651-0.25l0.104-0.814l0.983-1.188
		l1.866,1.502l0.855-0.281l0.232-0.846l0.857,0.344l3.73-1.25l3.133,0.373l0.234-0.938l2.978,0.596l0.31,0.531l1.813-0.596
		l0.908,0.096l0.104,1.408l1.192,1.596l1.061,0.094l0.674,0.846l0.985-0.627l2.175,0.283l1.037,0.748l-0.414,1.314h1.01l0.338,0.939
		l-0.155,1.313l-0.804,0.094l-0.184,0.752l1.789,1.438l1.322-0.5l0.129,0.875l0.933,0.813l-0.466,0.563l-0.985-0.654l-0.802,1.219
		l-0.105,1.031l1.478,1.094l-0.726,0.875l-0.621-0.5l0.259-0.469l-0.854-0.344L176.913,618.397z" />
		<path id="Sejong" class="land Sejong" d="M213.717,243.759l1.539,2.18l-0.307,2.803l-2.156,0.623l2.771,3.425v2.803l0.443,1.349l3.295,0.195l-0.09,1.456
		l-0.818,1.82l1.068,1.14l-1.842,6.085l0.572-0.781l0.395-0.324l0.697,0.145l0.607,0.859l0.305,0.034l-0.324,3.278l-0.924,2.804
		l-3.385,1.558l-0.9,0.043l-2.488,0.579l0.311,8.719l-2.154,2.491l-1.686-2.052l-1.728-1.346l-1.197-3.094l0.134-4.035l-0.266-2.825
		l-1.331-3.9l-2.661-1.479l-1.859-2.556l-0.133-2.019l1.063-2.421v-3.094l-0.133-3.498l-0.264-3.363l0.662-2.421l-0.266-3.095
		l-0.531-2.016l-1.064-2.019l0.398-1.75l2.66-1.076l2.527,0.808l1.463,1.615l2.66,1.613l2.525,0.941L213.717,243.759z" />
	</g>
</svg>
